%TF.GenerationSoftware,KiCad,Pcbnew,(5.1.12)-1*%
%TF.CreationDate,2024-04-15T13:07:49-04:00*%
%TF.ProjectId,QO100_TX,514f3130-305f-4545-982e-6b696361645f,rev?*%
%TF.SameCoordinates,Original*%
%TF.FileFunction,Soldermask,Top*%
%TF.FilePolarity,Negative*%
%FSLAX46Y46*%
G04 Gerber Fmt 4.6, Leading zero omitted, Abs format (unit mm)*
G04 Created by KiCad (PCBNEW (5.1.12)-1) date 2024-04-15 13:07:49*
%MOMM*%
%LPD*%
G01*
G04 APERTURE LIST*
%ADD10R,3.800000X1.000000*%
%ADD11R,1.550000X1.000000*%
%ADD12R,1.000000X2.300000*%
%ADD13R,1.000000X3.800000*%
%ADD14R,1.000000X1.000000*%
%ADD15R,1.800000X2.500000*%
%ADD16R,1.200000X1.400000*%
%ADD17C,0.100000*%
%ADD18R,1.300000X0.900000*%
%ADD19R,2.000000X1.500000*%
%ADD20R,2.000000X3.800000*%
%ADD21R,1.500000X7.000000*%
%ADD22R,3.000000X1.300000*%
%ADD23R,1.000000X2.600000*%
%ADD24R,2.300000X1.000000*%
%ADD25R,2.600000X1.000000*%
%ADD26R,1.270000X3.600000*%
%ADD27R,1.350000X4.200000*%
%ADD28R,2.200000X3.000000*%
%ADD29R,2.200000X2.800000*%
%ADD30R,2.800000X2.800000*%
%ADD31C,1.500000*%
%ADD32C,5.600000*%
%ADD33O,1.700000X1.700000*%
%ADD34R,1.700000X1.700000*%
G04 APERTURE END LIST*
%TO.C,U8*%
G36*
G01*
X132450000Y-183448000D02*
X135150000Y-183448000D01*
G75*
G02*
X135252000Y-183550000I0J-102000D01*
G01*
X135252000Y-186250000D01*
G75*
G02*
X135150000Y-186352000I-102000J0D01*
G01*
X132450000Y-186352000D01*
G75*
G02*
X132348000Y-186250000I0J102000D01*
G01*
X132348000Y-183550000D01*
G75*
G02*
X132450000Y-183448000I102000J0D01*
G01*
G37*
G36*
G01*
X134831920Y-186323000D02*
X135268080Y-186323000D01*
G75*
G02*
X135282000Y-186336920I0J-13920D01*
G01*
X135282000Y-187353080D01*
G75*
G02*
X135268080Y-187367000I-13920J0D01*
G01*
X134831920Y-187367000D01*
G75*
G02*
X134818000Y-187353080I0J13920D01*
G01*
X134818000Y-186336920D01*
G75*
G02*
X134831920Y-186323000I13920J0D01*
G01*
G37*
G36*
G01*
X134331920Y-186323000D02*
X134768080Y-186323000D01*
G75*
G02*
X134782000Y-186336920I0J-13920D01*
G01*
X134782000Y-187353080D01*
G75*
G02*
X134768080Y-187367000I-13920J0D01*
G01*
X134331920Y-187367000D01*
G75*
G02*
X134318000Y-187353080I0J13920D01*
G01*
X134318000Y-186336920D01*
G75*
G02*
X134331920Y-186323000I13920J0D01*
G01*
G37*
G36*
G01*
X133831920Y-186323000D02*
X134268080Y-186323000D01*
G75*
G02*
X134282000Y-186336920I0J-13920D01*
G01*
X134282000Y-187353080D01*
G75*
G02*
X134268080Y-187367000I-13920J0D01*
G01*
X133831920Y-187367000D01*
G75*
G02*
X133818000Y-187353080I0J13920D01*
G01*
X133818000Y-186336920D01*
G75*
G02*
X133831920Y-186323000I13920J0D01*
G01*
G37*
G36*
G01*
X133331920Y-186323000D02*
X133768080Y-186323000D01*
G75*
G02*
X133782000Y-186336920I0J-13920D01*
G01*
X133782000Y-187353080D01*
G75*
G02*
X133768080Y-187367000I-13920J0D01*
G01*
X133331920Y-187367000D01*
G75*
G02*
X133318000Y-187353080I0J13920D01*
G01*
X133318000Y-186336920D01*
G75*
G02*
X133331920Y-186323000I13920J0D01*
G01*
G37*
G36*
G01*
X132831920Y-186323000D02*
X133268080Y-186323000D01*
G75*
G02*
X133282000Y-186336920I0J-13920D01*
G01*
X133282000Y-187353080D01*
G75*
G02*
X133268080Y-187367000I-13920J0D01*
G01*
X132831920Y-187367000D01*
G75*
G02*
X132818000Y-187353080I0J13920D01*
G01*
X132818000Y-186336920D01*
G75*
G02*
X132831920Y-186323000I13920J0D01*
G01*
G37*
G36*
G01*
X132331920Y-186323000D02*
X132768080Y-186323000D01*
G75*
G02*
X132782000Y-186336920I0J-13920D01*
G01*
X132782000Y-187353080D01*
G75*
G02*
X132768080Y-187367000I-13920J0D01*
G01*
X132331920Y-187367000D01*
G75*
G02*
X132318000Y-187353080I0J13920D01*
G01*
X132318000Y-186336920D01*
G75*
G02*
X132331920Y-186323000I13920J0D01*
G01*
G37*
G36*
G01*
X132331920Y-182433000D02*
X132768080Y-182433000D01*
G75*
G02*
X132782000Y-182446920I0J-13920D01*
G01*
X132782000Y-183463080D01*
G75*
G02*
X132768080Y-183477000I-13920J0D01*
G01*
X132331920Y-183477000D01*
G75*
G02*
X132318000Y-183463080I0J13920D01*
G01*
X132318000Y-182446920D01*
G75*
G02*
X132331920Y-182433000I13920J0D01*
G01*
G37*
G36*
G01*
X132831920Y-182433000D02*
X133268080Y-182433000D01*
G75*
G02*
X133282000Y-182446920I0J-13920D01*
G01*
X133282000Y-183463080D01*
G75*
G02*
X133268080Y-183477000I-13920J0D01*
G01*
X132831920Y-183477000D01*
G75*
G02*
X132818000Y-183463080I0J13920D01*
G01*
X132818000Y-182446920D01*
G75*
G02*
X132831920Y-182433000I13920J0D01*
G01*
G37*
G36*
G01*
X133331920Y-182433000D02*
X133768080Y-182433000D01*
G75*
G02*
X133782000Y-182446920I0J-13920D01*
G01*
X133782000Y-183463080D01*
G75*
G02*
X133768080Y-183477000I-13920J0D01*
G01*
X133331920Y-183477000D01*
G75*
G02*
X133318000Y-183463080I0J13920D01*
G01*
X133318000Y-182446920D01*
G75*
G02*
X133331920Y-182433000I13920J0D01*
G01*
G37*
G36*
G01*
X133831920Y-182433000D02*
X134268080Y-182433000D01*
G75*
G02*
X134282000Y-182446920I0J-13920D01*
G01*
X134282000Y-183463080D01*
G75*
G02*
X134268080Y-183477000I-13920J0D01*
G01*
X133831920Y-183477000D01*
G75*
G02*
X133818000Y-183463080I0J13920D01*
G01*
X133818000Y-182446920D01*
G75*
G02*
X133831920Y-182433000I13920J0D01*
G01*
G37*
G36*
G01*
X134331920Y-182433000D02*
X134768080Y-182433000D01*
G75*
G02*
X134782000Y-182446920I0J-13920D01*
G01*
X134782000Y-183463080D01*
G75*
G02*
X134768080Y-183477000I-13920J0D01*
G01*
X134331920Y-183477000D01*
G75*
G02*
X134318000Y-183463080I0J13920D01*
G01*
X134318000Y-182446920D01*
G75*
G02*
X134331920Y-182433000I13920J0D01*
G01*
G37*
G36*
G01*
X134831920Y-182433000D02*
X135268080Y-182433000D01*
G75*
G02*
X135282000Y-182446920I0J-13920D01*
G01*
X135282000Y-183463080D01*
G75*
G02*
X135268080Y-183477000I-13920J0D01*
G01*
X134831920Y-183477000D01*
G75*
G02*
X134818000Y-183463080I0J13920D01*
G01*
X134818000Y-182446920D01*
G75*
G02*
X134831920Y-182433000I13920J0D01*
G01*
G37*
G36*
G01*
X135223000Y-183868080D02*
X135223000Y-183431920D01*
G75*
G02*
X135236920Y-183418000I13920J0D01*
G01*
X136253080Y-183418000D01*
G75*
G02*
X136267000Y-183431920I0J-13920D01*
G01*
X136267000Y-183868080D01*
G75*
G02*
X136253080Y-183882000I-13920J0D01*
G01*
X135236920Y-183882000D01*
G75*
G02*
X135223000Y-183868080I0J13920D01*
G01*
G37*
G36*
G01*
X135223000Y-184368080D02*
X135223000Y-183931920D01*
G75*
G02*
X135236920Y-183918000I13920J0D01*
G01*
X136253080Y-183918000D01*
G75*
G02*
X136267000Y-183931920I0J-13920D01*
G01*
X136267000Y-184368080D01*
G75*
G02*
X136253080Y-184382000I-13920J0D01*
G01*
X135236920Y-184382000D01*
G75*
G02*
X135223000Y-184368080I0J13920D01*
G01*
G37*
G36*
G01*
X135223000Y-184868080D02*
X135223000Y-184431920D01*
G75*
G02*
X135236920Y-184418000I13920J0D01*
G01*
X136253080Y-184418000D01*
G75*
G02*
X136267000Y-184431920I0J-13920D01*
G01*
X136267000Y-184868080D01*
G75*
G02*
X136253080Y-184882000I-13920J0D01*
G01*
X135236920Y-184882000D01*
G75*
G02*
X135223000Y-184868080I0J13920D01*
G01*
G37*
G36*
G01*
X135223000Y-185368080D02*
X135223000Y-184931920D01*
G75*
G02*
X135236920Y-184918000I13920J0D01*
G01*
X136253080Y-184918000D01*
G75*
G02*
X136267000Y-184931920I0J-13920D01*
G01*
X136267000Y-185368080D01*
G75*
G02*
X136253080Y-185382000I-13920J0D01*
G01*
X135236920Y-185382000D01*
G75*
G02*
X135223000Y-185368080I0J13920D01*
G01*
G37*
G36*
G01*
X135223000Y-185868080D02*
X135223000Y-185431920D01*
G75*
G02*
X135236920Y-185418000I13920J0D01*
G01*
X136253080Y-185418000D01*
G75*
G02*
X136267000Y-185431920I0J-13920D01*
G01*
X136267000Y-185868080D01*
G75*
G02*
X136253080Y-185882000I-13920J0D01*
G01*
X135236920Y-185882000D01*
G75*
G02*
X135223000Y-185868080I0J13920D01*
G01*
G37*
G36*
G01*
X135223000Y-186368080D02*
X135223000Y-185931920D01*
G75*
G02*
X135236920Y-185918000I13920J0D01*
G01*
X136253080Y-185918000D01*
G75*
G02*
X136267000Y-185931920I0J-13920D01*
G01*
X136267000Y-186368080D01*
G75*
G02*
X136253080Y-186382000I-13920J0D01*
G01*
X135236920Y-186382000D01*
G75*
G02*
X135223000Y-186368080I0J13920D01*
G01*
G37*
G36*
G01*
X131333000Y-186368080D02*
X131333000Y-185931920D01*
G75*
G02*
X131346920Y-185918000I13920J0D01*
G01*
X132363080Y-185918000D01*
G75*
G02*
X132377000Y-185931920I0J-13920D01*
G01*
X132377000Y-186368080D01*
G75*
G02*
X132363080Y-186382000I-13920J0D01*
G01*
X131346920Y-186382000D01*
G75*
G02*
X131333000Y-186368080I0J13920D01*
G01*
G37*
G36*
G01*
X131333000Y-185868080D02*
X131333000Y-185431920D01*
G75*
G02*
X131346920Y-185418000I13920J0D01*
G01*
X132363080Y-185418000D01*
G75*
G02*
X132377000Y-185431920I0J-13920D01*
G01*
X132377000Y-185868080D01*
G75*
G02*
X132363080Y-185882000I-13920J0D01*
G01*
X131346920Y-185882000D01*
G75*
G02*
X131333000Y-185868080I0J13920D01*
G01*
G37*
G36*
G01*
X131333000Y-185368080D02*
X131333000Y-184931920D01*
G75*
G02*
X131346920Y-184918000I13920J0D01*
G01*
X132363080Y-184918000D01*
G75*
G02*
X132377000Y-184931920I0J-13920D01*
G01*
X132377000Y-185368080D01*
G75*
G02*
X132363080Y-185382000I-13920J0D01*
G01*
X131346920Y-185382000D01*
G75*
G02*
X131333000Y-185368080I0J13920D01*
G01*
G37*
G36*
G01*
X131333000Y-184868080D02*
X131333000Y-184431920D01*
G75*
G02*
X131346920Y-184418000I13920J0D01*
G01*
X132363080Y-184418000D01*
G75*
G02*
X132377000Y-184431920I0J-13920D01*
G01*
X132377000Y-184868080D01*
G75*
G02*
X132363080Y-184882000I-13920J0D01*
G01*
X131346920Y-184882000D01*
G75*
G02*
X131333000Y-184868080I0J13920D01*
G01*
G37*
G36*
G01*
X131333000Y-184368080D02*
X131333000Y-183931920D01*
G75*
G02*
X131346920Y-183918000I13920J0D01*
G01*
X132363080Y-183918000D01*
G75*
G02*
X132377000Y-183931920I0J-13920D01*
G01*
X132377000Y-184368080D01*
G75*
G02*
X132363080Y-184382000I-13920J0D01*
G01*
X131346920Y-184382000D01*
G75*
G02*
X131333000Y-184368080I0J13920D01*
G01*
G37*
G36*
G01*
X131333000Y-183868080D02*
X131333000Y-183431920D01*
G75*
G02*
X131346920Y-183418000I13920J0D01*
G01*
X132363080Y-183418000D01*
G75*
G02*
X132377000Y-183431920I0J-13920D01*
G01*
X132377000Y-183868080D01*
G75*
G02*
X132363080Y-183882000I-13920J0D01*
G01*
X131346920Y-183882000D01*
G75*
G02*
X131333000Y-183868080I0J13920D01*
G01*
G37*
%TD*%
%TO.C,C12*%
G36*
G01*
X146850000Y-166000000D02*
X145750000Y-166000000D01*
G75*
G02*
X145500000Y-165750000I0J250000D01*
G01*
X145500000Y-163650000D01*
G75*
G02*
X145750000Y-163400000I250000J0D01*
G01*
X146850000Y-163400000D01*
G75*
G02*
X147100000Y-163650000I0J-250000D01*
G01*
X147100000Y-165750000D01*
G75*
G02*
X146850000Y-166000000I-250000J0D01*
G01*
G37*
G36*
G01*
X146850000Y-169600000D02*
X145750000Y-169600000D01*
G75*
G02*
X145500000Y-169350000I0J250000D01*
G01*
X145500000Y-167250000D01*
G75*
G02*
X145750000Y-167000000I250000J0D01*
G01*
X146850000Y-167000000D01*
G75*
G02*
X147100000Y-167250000I0J-250000D01*
G01*
X147100000Y-169350000D01*
G75*
G02*
X146850000Y-169600000I-250000J0D01*
G01*
G37*
%TD*%
D10*
%TO.C,J4*%
X142150000Y-171650000D03*
X132350000Y-171800000D03*
X128850000Y-171800000D03*
X145750000Y-171650000D03*
D11*
X148725000Y-160200000D03*
X148725000Y-204000000D03*
D10*
X146150000Y-160200000D03*
X146150000Y-204000000D03*
X143150000Y-160200000D03*
X143550000Y-204000000D03*
X126150000Y-160300000D03*
X128450000Y-204100000D03*
X129850000Y-160300000D03*
X131850000Y-204100000D03*
D11*
X125975000Y-160300000D03*
X125975000Y-204100000D03*
D12*
X150000000Y-161850000D03*
X124700000Y-161950000D03*
D13*
X150000000Y-167100000D03*
X124700000Y-167200000D03*
X150000000Y-173100000D03*
X124700000Y-173200000D03*
X150000000Y-179100000D03*
X124700000Y-179200000D03*
X150000000Y-185100000D03*
X124700000Y-185200000D03*
X150000000Y-191100000D03*
X124700000Y-191200000D03*
X150000000Y-197100000D03*
X124700000Y-197200000D03*
D12*
X150000000Y-202350000D03*
X124700000Y-202450000D03*
D14*
X150000000Y-204000000D03*
X150000000Y-160200000D03*
X124700000Y-160300000D03*
X124700000Y-204100000D03*
%TD*%
D15*
%TO.C,D1*%
X57600000Y-139800000D03*
X57600000Y-143800000D03*
%TD*%
D16*
%TO.C,Y1*%
X134050000Y-197900000D03*
X134050000Y-200300000D03*
X132150000Y-200300000D03*
X132150000Y-197900000D03*
%TD*%
D17*
%TO.C,U7*%
G36*
X135900000Y-147733500D02*
G01*
X139025000Y-147733500D01*
X139025000Y-148150000D01*
X140500000Y-148150000D01*
X140500000Y-149050000D01*
X139025000Y-149050000D01*
X139025000Y-149466500D01*
X135900000Y-149466500D01*
X135900000Y-147733500D01*
G37*
D18*
X139850000Y-147100000D03*
X139850000Y-150100000D03*
%TD*%
D19*
%TO.C,U6*%
X88550000Y-139400000D03*
X88550000Y-144000000D03*
X88550000Y-141700000D03*
D20*
X94850000Y-141700000D03*
%TD*%
D19*
%TO.C,U5*%
X72650000Y-138900000D03*
X72650000Y-143500000D03*
X72650000Y-141200000D03*
D20*
X78950000Y-141200000D03*
%TD*%
%TO.C,U4*%
G36*
G01*
X134891800Y-164519200D02*
X134536200Y-164519200D01*
G75*
G02*
X134434200Y-164417200I0J102000D01*
G01*
X134434200Y-162944000D01*
G75*
G02*
X134536200Y-162842000I102000J0D01*
G01*
X134891800Y-162842000D01*
G75*
G02*
X134993800Y-162944000I0J-102000D01*
G01*
X134993800Y-164417200D01*
G75*
G02*
X134891800Y-164519200I-102000J0D01*
G01*
G37*
G36*
G01*
X135552200Y-164519200D02*
X135196600Y-164519200D01*
G75*
G02*
X135094600Y-164417200I0J102000D01*
G01*
X135094600Y-162944000D01*
G75*
G02*
X135196600Y-162842000I102000J0D01*
G01*
X135552200Y-162842000D01*
G75*
G02*
X135654200Y-162944000I0J-102000D01*
G01*
X135654200Y-164417200D01*
G75*
G02*
X135552200Y-164519200I-102000J0D01*
G01*
G37*
G36*
G01*
X136212600Y-164519200D02*
X135857000Y-164519200D01*
G75*
G02*
X135755000Y-164417200I0J102000D01*
G01*
X135755000Y-162944000D01*
G75*
G02*
X135857000Y-162842000I102000J0D01*
G01*
X136212600Y-162842000D01*
G75*
G02*
X136314600Y-162944000I0J-102000D01*
G01*
X136314600Y-164417200D01*
G75*
G02*
X136212600Y-164519200I-102000J0D01*
G01*
G37*
G36*
G01*
X136847600Y-164519200D02*
X136492000Y-164519200D01*
G75*
G02*
X136390000Y-164417200I0J102000D01*
G01*
X136390000Y-162944000D01*
G75*
G02*
X136492000Y-162842000I102000J0D01*
G01*
X136847600Y-162842000D01*
G75*
G02*
X136949600Y-162944000I0J-102000D01*
G01*
X136949600Y-164417200D01*
G75*
G02*
X136847600Y-164519200I-102000J0D01*
G01*
G37*
G36*
G01*
X137508000Y-164519200D02*
X137152400Y-164519200D01*
G75*
G02*
X137050400Y-164417200I0J102000D01*
G01*
X137050400Y-162944000D01*
G75*
G02*
X137152400Y-162842000I102000J0D01*
G01*
X137508000Y-162842000D01*
G75*
G02*
X137610000Y-162944000I0J-102000D01*
G01*
X137610000Y-164417200D01*
G75*
G02*
X137508000Y-164519200I-102000J0D01*
G01*
G37*
G36*
G01*
X138143000Y-164519200D02*
X137787400Y-164519200D01*
G75*
G02*
X137685400Y-164417200I0J102000D01*
G01*
X137685400Y-162944000D01*
G75*
G02*
X137787400Y-162842000I102000J0D01*
G01*
X138143000Y-162842000D01*
G75*
G02*
X138245000Y-162944000I0J-102000D01*
G01*
X138245000Y-164417200D01*
G75*
G02*
X138143000Y-164519200I-102000J0D01*
G01*
G37*
G36*
G01*
X138803400Y-164519200D02*
X138447800Y-164519200D01*
G75*
G02*
X138345800Y-164417200I0J102000D01*
G01*
X138345800Y-162944000D01*
G75*
G02*
X138447800Y-162842000I102000J0D01*
G01*
X138803400Y-162842000D01*
G75*
G02*
X138905400Y-162944000I0J-102000D01*
G01*
X138905400Y-164417200D01*
G75*
G02*
X138803400Y-164519200I-102000J0D01*
G01*
G37*
G36*
G01*
X139463800Y-164519200D02*
X139108200Y-164519200D01*
G75*
G02*
X139006200Y-164417200I0J102000D01*
G01*
X139006200Y-162944000D01*
G75*
G02*
X139108200Y-162842000I102000J0D01*
G01*
X139463800Y-162842000D01*
G75*
G02*
X139565800Y-162944000I0J-102000D01*
G01*
X139565800Y-164417200D01*
G75*
G02*
X139463800Y-164519200I-102000J0D01*
G01*
G37*
G36*
G01*
X139463800Y-170158000D02*
X139108200Y-170158000D01*
G75*
G02*
X139006200Y-170056000I0J102000D01*
G01*
X139006200Y-168582800D01*
G75*
G02*
X139108200Y-168480800I102000J0D01*
G01*
X139463800Y-168480800D01*
G75*
G02*
X139565800Y-168582800I0J-102000D01*
G01*
X139565800Y-170056000D01*
G75*
G02*
X139463800Y-170158000I-102000J0D01*
G01*
G37*
G36*
G01*
X138803400Y-170158000D02*
X138447800Y-170158000D01*
G75*
G02*
X138345800Y-170056000I0J102000D01*
G01*
X138345800Y-168582800D01*
G75*
G02*
X138447800Y-168480800I102000J0D01*
G01*
X138803400Y-168480800D01*
G75*
G02*
X138905400Y-168582800I0J-102000D01*
G01*
X138905400Y-170056000D01*
G75*
G02*
X138803400Y-170158000I-102000J0D01*
G01*
G37*
G36*
G01*
X138143000Y-170158000D02*
X137787400Y-170158000D01*
G75*
G02*
X137685400Y-170056000I0J102000D01*
G01*
X137685400Y-168582800D01*
G75*
G02*
X137787400Y-168480800I102000J0D01*
G01*
X138143000Y-168480800D01*
G75*
G02*
X138245000Y-168582800I0J-102000D01*
G01*
X138245000Y-170056000D01*
G75*
G02*
X138143000Y-170158000I-102000J0D01*
G01*
G37*
G36*
G01*
X137508000Y-170158000D02*
X137152400Y-170158000D01*
G75*
G02*
X137050400Y-170056000I0J102000D01*
G01*
X137050400Y-168582800D01*
G75*
G02*
X137152400Y-168480800I102000J0D01*
G01*
X137508000Y-168480800D01*
G75*
G02*
X137610000Y-168582800I0J-102000D01*
G01*
X137610000Y-170056000D01*
G75*
G02*
X137508000Y-170158000I-102000J0D01*
G01*
G37*
G36*
G01*
X136847600Y-170158000D02*
X136492000Y-170158000D01*
G75*
G02*
X136390000Y-170056000I0J102000D01*
G01*
X136390000Y-168582800D01*
G75*
G02*
X136492000Y-168480800I102000J0D01*
G01*
X136847600Y-168480800D01*
G75*
G02*
X136949600Y-168582800I0J-102000D01*
G01*
X136949600Y-170056000D01*
G75*
G02*
X136847600Y-170158000I-102000J0D01*
G01*
G37*
G36*
G01*
X136212600Y-170158000D02*
X135857000Y-170158000D01*
G75*
G02*
X135755000Y-170056000I0J102000D01*
G01*
X135755000Y-168582800D01*
G75*
G02*
X135857000Y-168480800I102000J0D01*
G01*
X136212600Y-168480800D01*
G75*
G02*
X136314600Y-168582800I0J-102000D01*
G01*
X136314600Y-170056000D01*
G75*
G02*
X136212600Y-170158000I-102000J0D01*
G01*
G37*
G36*
G01*
X135552200Y-170158000D02*
X135196600Y-170158000D01*
G75*
G02*
X135094600Y-170056000I0J102000D01*
G01*
X135094600Y-168582800D01*
G75*
G02*
X135196600Y-168480800I102000J0D01*
G01*
X135552200Y-168480800D01*
G75*
G02*
X135654200Y-168582800I0J-102000D01*
G01*
X135654200Y-170056000D01*
G75*
G02*
X135552200Y-170158000I-102000J0D01*
G01*
G37*
G36*
G01*
X134891800Y-170158000D02*
X134536200Y-170158000D01*
G75*
G02*
X134434200Y-170056000I0J102000D01*
G01*
X134434200Y-168582800D01*
G75*
G02*
X134536200Y-168480800I102000J0D01*
G01*
X134891800Y-168480800D01*
G75*
G02*
X134993800Y-168582800I0J-102000D01*
G01*
X134993800Y-170056000D01*
G75*
G02*
X134891800Y-170158000I-102000J0D01*
G01*
G37*
%TD*%
%TO.C,U3*%
G36*
G01*
X116555000Y-159000000D02*
X116855000Y-159000000D01*
G75*
G02*
X117005000Y-159150000I0J-150000D01*
G01*
X117005000Y-160800000D01*
G75*
G02*
X116855000Y-160950000I-150000J0D01*
G01*
X116555000Y-160950000D01*
G75*
G02*
X116405000Y-160800000I0J150000D01*
G01*
X116405000Y-159150000D01*
G75*
G02*
X116555000Y-159000000I150000J0D01*
G01*
G37*
G36*
G01*
X115285000Y-159000000D02*
X115585000Y-159000000D01*
G75*
G02*
X115735000Y-159150000I0J-150000D01*
G01*
X115735000Y-160800000D01*
G75*
G02*
X115585000Y-160950000I-150000J0D01*
G01*
X115285000Y-160950000D01*
G75*
G02*
X115135000Y-160800000I0J150000D01*
G01*
X115135000Y-159150000D01*
G75*
G02*
X115285000Y-159000000I150000J0D01*
G01*
G37*
G36*
G01*
X114015000Y-159000000D02*
X114315000Y-159000000D01*
G75*
G02*
X114465000Y-159150000I0J-150000D01*
G01*
X114465000Y-160800000D01*
G75*
G02*
X114315000Y-160950000I-150000J0D01*
G01*
X114015000Y-160950000D01*
G75*
G02*
X113865000Y-160800000I0J150000D01*
G01*
X113865000Y-159150000D01*
G75*
G02*
X114015000Y-159000000I150000J0D01*
G01*
G37*
G36*
G01*
X112745000Y-159000000D02*
X113045000Y-159000000D01*
G75*
G02*
X113195000Y-159150000I0J-150000D01*
G01*
X113195000Y-160800000D01*
G75*
G02*
X113045000Y-160950000I-150000J0D01*
G01*
X112745000Y-160950000D01*
G75*
G02*
X112595000Y-160800000I0J150000D01*
G01*
X112595000Y-159150000D01*
G75*
G02*
X112745000Y-159000000I150000J0D01*
G01*
G37*
G36*
G01*
X112745000Y-154050000D02*
X113045000Y-154050000D01*
G75*
G02*
X113195000Y-154200000I0J-150000D01*
G01*
X113195000Y-155850000D01*
G75*
G02*
X113045000Y-156000000I-150000J0D01*
G01*
X112745000Y-156000000D01*
G75*
G02*
X112595000Y-155850000I0J150000D01*
G01*
X112595000Y-154200000D01*
G75*
G02*
X112745000Y-154050000I150000J0D01*
G01*
G37*
G36*
G01*
X114015000Y-154050000D02*
X114315000Y-154050000D01*
G75*
G02*
X114465000Y-154200000I0J-150000D01*
G01*
X114465000Y-155850000D01*
G75*
G02*
X114315000Y-156000000I-150000J0D01*
G01*
X114015000Y-156000000D01*
G75*
G02*
X113865000Y-155850000I0J150000D01*
G01*
X113865000Y-154200000D01*
G75*
G02*
X114015000Y-154050000I150000J0D01*
G01*
G37*
G36*
G01*
X115285000Y-154050000D02*
X115585000Y-154050000D01*
G75*
G02*
X115735000Y-154200000I0J-150000D01*
G01*
X115735000Y-155850000D01*
G75*
G02*
X115585000Y-156000000I-150000J0D01*
G01*
X115285000Y-156000000D01*
G75*
G02*
X115135000Y-155850000I0J150000D01*
G01*
X115135000Y-154200000D01*
G75*
G02*
X115285000Y-154050000I150000J0D01*
G01*
G37*
G36*
G01*
X116555000Y-154050000D02*
X116855000Y-154050000D01*
G75*
G02*
X117005000Y-154200000I0J-150000D01*
G01*
X117005000Y-155850000D01*
G75*
G02*
X116855000Y-156000000I-150000J0D01*
G01*
X116555000Y-156000000D01*
G75*
G02*
X116405000Y-155850000I0J150000D01*
G01*
X116405000Y-154200000D01*
G75*
G02*
X116555000Y-154050000I150000J0D01*
G01*
G37*
%TD*%
%TO.C,U2*%
G36*
G01*
X116355000Y-169700000D02*
X116655000Y-169700000D01*
G75*
G02*
X116805000Y-169850000I0J-150000D01*
G01*
X116805000Y-171500000D01*
G75*
G02*
X116655000Y-171650000I-150000J0D01*
G01*
X116355000Y-171650000D01*
G75*
G02*
X116205000Y-171500000I0J150000D01*
G01*
X116205000Y-169850000D01*
G75*
G02*
X116355000Y-169700000I150000J0D01*
G01*
G37*
G36*
G01*
X115085000Y-169700000D02*
X115385000Y-169700000D01*
G75*
G02*
X115535000Y-169850000I0J-150000D01*
G01*
X115535000Y-171500000D01*
G75*
G02*
X115385000Y-171650000I-150000J0D01*
G01*
X115085000Y-171650000D01*
G75*
G02*
X114935000Y-171500000I0J150000D01*
G01*
X114935000Y-169850000D01*
G75*
G02*
X115085000Y-169700000I150000J0D01*
G01*
G37*
G36*
G01*
X113815000Y-169700000D02*
X114115000Y-169700000D01*
G75*
G02*
X114265000Y-169850000I0J-150000D01*
G01*
X114265000Y-171500000D01*
G75*
G02*
X114115000Y-171650000I-150000J0D01*
G01*
X113815000Y-171650000D01*
G75*
G02*
X113665000Y-171500000I0J150000D01*
G01*
X113665000Y-169850000D01*
G75*
G02*
X113815000Y-169700000I150000J0D01*
G01*
G37*
G36*
G01*
X112545000Y-169700000D02*
X112845000Y-169700000D01*
G75*
G02*
X112995000Y-169850000I0J-150000D01*
G01*
X112995000Y-171500000D01*
G75*
G02*
X112845000Y-171650000I-150000J0D01*
G01*
X112545000Y-171650000D01*
G75*
G02*
X112395000Y-171500000I0J150000D01*
G01*
X112395000Y-169850000D01*
G75*
G02*
X112545000Y-169700000I150000J0D01*
G01*
G37*
G36*
G01*
X112545000Y-164750000D02*
X112845000Y-164750000D01*
G75*
G02*
X112995000Y-164900000I0J-150000D01*
G01*
X112995000Y-166550000D01*
G75*
G02*
X112845000Y-166700000I-150000J0D01*
G01*
X112545000Y-166700000D01*
G75*
G02*
X112395000Y-166550000I0J150000D01*
G01*
X112395000Y-164900000D01*
G75*
G02*
X112545000Y-164750000I150000J0D01*
G01*
G37*
G36*
G01*
X113815000Y-164750000D02*
X114115000Y-164750000D01*
G75*
G02*
X114265000Y-164900000I0J-150000D01*
G01*
X114265000Y-166550000D01*
G75*
G02*
X114115000Y-166700000I-150000J0D01*
G01*
X113815000Y-166700000D01*
G75*
G02*
X113665000Y-166550000I0J150000D01*
G01*
X113665000Y-164900000D01*
G75*
G02*
X113815000Y-164750000I150000J0D01*
G01*
G37*
G36*
G01*
X115085000Y-164750000D02*
X115385000Y-164750000D01*
G75*
G02*
X115535000Y-164900000I0J-150000D01*
G01*
X115535000Y-166550000D01*
G75*
G02*
X115385000Y-166700000I-150000J0D01*
G01*
X115085000Y-166700000D01*
G75*
G02*
X114935000Y-166550000I0J150000D01*
G01*
X114935000Y-164900000D01*
G75*
G02*
X115085000Y-164750000I150000J0D01*
G01*
G37*
G36*
G01*
X116355000Y-164750000D02*
X116655000Y-164750000D01*
G75*
G02*
X116805000Y-164900000I0J-150000D01*
G01*
X116805000Y-166550000D01*
G75*
G02*
X116655000Y-166700000I-150000J0D01*
G01*
X116355000Y-166700000D01*
G75*
G02*
X116205000Y-166550000I0J150000D01*
G01*
X116205000Y-164900000D01*
G75*
G02*
X116355000Y-164750000I150000J0D01*
G01*
G37*
%TD*%
D21*
%TO.C,U1*%
X57100000Y-158980000D03*
X59640000Y-158980000D03*
X62180000Y-158980000D03*
X64720000Y-158980000D03*
X67260000Y-158980000D03*
X69800000Y-158980000D03*
X72340000Y-158980000D03*
X74880000Y-158980000D03*
X77420000Y-158980000D03*
X79960000Y-158980000D03*
X82500000Y-158980000D03*
X85040000Y-158980000D03*
X87580000Y-158980000D03*
X90120000Y-158980000D03*
X92660000Y-158980000D03*
X95200000Y-158980000D03*
X97740000Y-158980000D03*
X100280000Y-158980000D03*
X102820000Y-158980000D03*
X105360000Y-158980000D03*
X105360000Y-176760000D03*
X102820000Y-176760000D03*
X100280000Y-176760000D03*
X97740000Y-176760000D03*
X95200000Y-176760000D03*
X92660000Y-176760000D03*
X90120000Y-176760000D03*
X87580000Y-176760000D03*
X85040000Y-176760000D03*
X82500000Y-176760000D03*
X79960000Y-176760000D03*
X77420000Y-176760000D03*
X74880000Y-176760000D03*
X72340000Y-176760000D03*
X69800000Y-176760000D03*
X67260000Y-176760000D03*
X64720000Y-176760000D03*
X62180000Y-176760000D03*
X59640000Y-176760000D03*
X57100000Y-176760000D03*
%TD*%
D22*
%TO.C,SW1*%
X71700000Y-134300000D03*
X71700000Y-129700000D03*
X66200000Y-129700000D03*
X66200000Y-134250000D03*
%TD*%
%TO.C,R17*%
G36*
G01*
X140200000Y-187149998D02*
X140200000Y-188050002D01*
G75*
G02*
X139950002Y-188300000I-249998J0D01*
G01*
X139424998Y-188300000D01*
G75*
G02*
X139175000Y-188050002I0J249998D01*
G01*
X139175000Y-187149998D01*
G75*
G02*
X139424998Y-186900000I249998J0D01*
G01*
X139950002Y-186900000D01*
G75*
G02*
X140200000Y-187149998I0J-249998D01*
G01*
G37*
G36*
G01*
X142025000Y-187149998D02*
X142025000Y-188050002D01*
G75*
G02*
X141775002Y-188300000I-249998J0D01*
G01*
X141249998Y-188300000D01*
G75*
G02*
X141000000Y-188050002I0J249998D01*
G01*
X141000000Y-187149998D01*
G75*
G02*
X141249998Y-186900000I249998J0D01*
G01*
X141775002Y-186900000D01*
G75*
G02*
X142025000Y-187149998I0J-249998D01*
G01*
G37*
%TD*%
%TO.C,R16*%
G36*
G01*
X130450002Y-185912500D02*
X129549998Y-185912500D01*
G75*
G02*
X129300000Y-185662502I0J249998D01*
G01*
X129300000Y-185137498D01*
G75*
G02*
X129549998Y-184887500I249998J0D01*
G01*
X130450002Y-184887500D01*
G75*
G02*
X130700000Y-185137498I0J-249998D01*
G01*
X130700000Y-185662502D01*
G75*
G02*
X130450002Y-185912500I-249998J0D01*
G01*
G37*
G36*
G01*
X130450002Y-187737500D02*
X129549998Y-187737500D01*
G75*
G02*
X129300000Y-187487502I0J249998D01*
G01*
X129300000Y-186962498D01*
G75*
G02*
X129549998Y-186712500I249998J0D01*
G01*
X130450002Y-186712500D01*
G75*
G02*
X130700000Y-186962498I0J-249998D01*
G01*
X130700000Y-187487502D01*
G75*
G02*
X130450002Y-187737500I-249998J0D01*
G01*
G37*
%TD*%
%TO.C,R15*%
G36*
G01*
X136600000Y-142249998D02*
X136600000Y-143150002D01*
G75*
G02*
X136350002Y-143400000I-249998J0D01*
G01*
X135824998Y-143400000D01*
G75*
G02*
X135575000Y-143150002I0J249998D01*
G01*
X135575000Y-142249998D01*
G75*
G02*
X135824998Y-142000000I249998J0D01*
G01*
X136350002Y-142000000D01*
G75*
G02*
X136600000Y-142249998I0J-249998D01*
G01*
G37*
G36*
G01*
X138425000Y-142249998D02*
X138425000Y-143150002D01*
G75*
G02*
X138175002Y-143400000I-249998J0D01*
G01*
X137649998Y-143400000D01*
G75*
G02*
X137400000Y-143150002I0J249998D01*
G01*
X137400000Y-142249998D01*
G75*
G02*
X137649998Y-142000000I249998J0D01*
G01*
X138175002Y-142000000D01*
G75*
G02*
X138425000Y-142249998I0J-249998D01*
G01*
G37*
%TD*%
%TO.C,R14*%
G36*
G01*
X128749998Y-191100000D02*
X129650002Y-191100000D01*
G75*
G02*
X129900000Y-191349998I0J-249998D01*
G01*
X129900000Y-191875002D01*
G75*
G02*
X129650002Y-192125000I-249998J0D01*
G01*
X128749998Y-192125000D01*
G75*
G02*
X128500000Y-191875002I0J249998D01*
G01*
X128500000Y-191349998D01*
G75*
G02*
X128749998Y-191100000I249998J0D01*
G01*
G37*
G36*
G01*
X128749998Y-189275000D02*
X129650002Y-189275000D01*
G75*
G02*
X129900000Y-189524998I0J-249998D01*
G01*
X129900000Y-190050002D01*
G75*
G02*
X129650002Y-190300000I-249998J0D01*
G01*
X128749998Y-190300000D01*
G75*
G02*
X128500000Y-190050002I0J249998D01*
G01*
X128500000Y-189524998D01*
G75*
G02*
X128749998Y-189275000I249998J0D01*
G01*
G37*
%TD*%
%TO.C,R13*%
G36*
G01*
X115400000Y-150949998D02*
X115400000Y-151850002D01*
G75*
G02*
X115150002Y-152100000I-249998J0D01*
G01*
X114624998Y-152100000D01*
G75*
G02*
X114375000Y-151850002I0J249998D01*
G01*
X114375000Y-150949998D01*
G75*
G02*
X114624998Y-150700000I249998J0D01*
G01*
X115150002Y-150700000D01*
G75*
G02*
X115400000Y-150949998I0J-249998D01*
G01*
G37*
G36*
G01*
X117225000Y-150949998D02*
X117225000Y-151850002D01*
G75*
G02*
X116975002Y-152100000I-249998J0D01*
G01*
X116449998Y-152100000D01*
G75*
G02*
X116200000Y-151850002I0J249998D01*
G01*
X116200000Y-150949998D01*
G75*
G02*
X116449998Y-150700000I249998J0D01*
G01*
X116975002Y-150700000D01*
G75*
G02*
X117225000Y-150949998I0J-249998D01*
G01*
G37*
%TD*%
%TO.C,R12*%
G36*
G01*
X119900000Y-151850002D02*
X119900000Y-150949998D01*
G75*
G02*
X120149998Y-150700000I249998J0D01*
G01*
X120675002Y-150700000D01*
G75*
G02*
X120925000Y-150949998I0J-249998D01*
G01*
X120925000Y-151850002D01*
G75*
G02*
X120675002Y-152100000I-249998J0D01*
G01*
X120149998Y-152100000D01*
G75*
G02*
X119900000Y-151850002I0J249998D01*
G01*
G37*
G36*
G01*
X118075000Y-151850002D02*
X118075000Y-150949998D01*
G75*
G02*
X118324998Y-150700000I249998J0D01*
G01*
X118850002Y-150700000D01*
G75*
G02*
X119100000Y-150949998I0J-249998D01*
G01*
X119100000Y-151850002D01*
G75*
G02*
X118850002Y-152100000I-249998J0D01*
G01*
X118324998Y-152100000D01*
G75*
G02*
X118075000Y-151850002I0J249998D01*
G01*
G37*
%TD*%
%TO.C,R11*%
G36*
G01*
X130300000Y-193549998D02*
X130300000Y-194450002D01*
G75*
G02*
X130050002Y-194700000I-249998J0D01*
G01*
X129524998Y-194700000D01*
G75*
G02*
X129275000Y-194450002I0J249998D01*
G01*
X129275000Y-193549998D01*
G75*
G02*
X129524998Y-193300000I249998J0D01*
G01*
X130050002Y-193300000D01*
G75*
G02*
X130300000Y-193549998I0J-249998D01*
G01*
G37*
G36*
G01*
X132125000Y-193549998D02*
X132125000Y-194450002D01*
G75*
G02*
X131875002Y-194700000I-249998J0D01*
G01*
X131349998Y-194700000D01*
G75*
G02*
X131100000Y-194450002I0J249998D01*
G01*
X131100000Y-193549998D01*
G75*
G02*
X131349998Y-193300000I249998J0D01*
G01*
X131875002Y-193300000D01*
G75*
G02*
X132125000Y-193549998I0J-249998D01*
G01*
G37*
%TD*%
%TO.C,R10*%
G36*
G01*
X112200000Y-151850002D02*
X112200000Y-150949998D01*
G75*
G02*
X112449998Y-150700000I249998J0D01*
G01*
X112975002Y-150700000D01*
G75*
G02*
X113225000Y-150949998I0J-249998D01*
G01*
X113225000Y-151850002D01*
G75*
G02*
X112975002Y-152100000I-249998J0D01*
G01*
X112449998Y-152100000D01*
G75*
G02*
X112200000Y-151850002I0J249998D01*
G01*
G37*
G36*
G01*
X110375000Y-151850002D02*
X110375000Y-150949998D01*
G75*
G02*
X110624998Y-150700000I249998J0D01*
G01*
X111150002Y-150700000D01*
G75*
G02*
X111400000Y-150949998I0J-249998D01*
G01*
X111400000Y-151850002D01*
G75*
G02*
X111150002Y-152100000I-249998J0D01*
G01*
X110624998Y-152100000D01*
G75*
G02*
X110375000Y-151850002I0J249998D01*
G01*
G37*
%TD*%
%TO.C,R9*%
G36*
G01*
X108387500Y-151850002D02*
X108387500Y-150949998D01*
G75*
G02*
X108637498Y-150700000I249998J0D01*
G01*
X109162502Y-150700000D01*
G75*
G02*
X109412500Y-150949998I0J-249998D01*
G01*
X109412500Y-151850002D01*
G75*
G02*
X109162502Y-152100000I-249998J0D01*
G01*
X108637498Y-152100000D01*
G75*
G02*
X108387500Y-151850002I0J249998D01*
G01*
G37*
G36*
G01*
X106562500Y-151850002D02*
X106562500Y-150949998D01*
G75*
G02*
X106812498Y-150700000I249998J0D01*
G01*
X107337502Y-150700000D01*
G75*
G02*
X107587500Y-150949998I0J-249998D01*
G01*
X107587500Y-151850002D01*
G75*
G02*
X107337502Y-152100000I-249998J0D01*
G01*
X106812498Y-152100000D01*
G75*
G02*
X106562500Y-151850002I0J249998D01*
G01*
G37*
%TD*%
%TO.C,R8*%
G36*
G01*
X115000000Y-163150002D02*
X115000000Y-162249998D01*
G75*
G02*
X115249998Y-162000000I249998J0D01*
G01*
X115775002Y-162000000D01*
G75*
G02*
X116025000Y-162249998I0J-249998D01*
G01*
X116025000Y-163150002D01*
G75*
G02*
X115775002Y-163400000I-249998J0D01*
G01*
X115249998Y-163400000D01*
G75*
G02*
X115000000Y-163150002I0J249998D01*
G01*
G37*
G36*
G01*
X113175000Y-163150002D02*
X113175000Y-162249998D01*
G75*
G02*
X113424998Y-162000000I249998J0D01*
G01*
X113950002Y-162000000D01*
G75*
G02*
X114200000Y-162249998I0J-249998D01*
G01*
X114200000Y-163150002D01*
G75*
G02*
X113950002Y-163400000I-249998J0D01*
G01*
X113424998Y-163400000D01*
G75*
G02*
X113175000Y-163150002I0J249998D01*
G01*
G37*
%TD*%
%TO.C,R7*%
G36*
G01*
X118349998Y-169600000D02*
X119250002Y-169600000D01*
G75*
G02*
X119500000Y-169849998I0J-249998D01*
G01*
X119500000Y-170375002D01*
G75*
G02*
X119250002Y-170625000I-249998J0D01*
G01*
X118349998Y-170625000D01*
G75*
G02*
X118100000Y-170375002I0J249998D01*
G01*
X118100000Y-169849998D01*
G75*
G02*
X118349998Y-169600000I249998J0D01*
G01*
G37*
G36*
G01*
X118349998Y-167775000D02*
X119250002Y-167775000D01*
G75*
G02*
X119500000Y-168024998I0J-249998D01*
G01*
X119500000Y-168550002D01*
G75*
G02*
X119250002Y-168800000I-249998J0D01*
G01*
X118349998Y-168800000D01*
G75*
G02*
X118100000Y-168550002I0J249998D01*
G01*
X118100000Y-168024998D01*
G75*
G02*
X118349998Y-167775000I249998J0D01*
G01*
G37*
%TD*%
%TO.C,R6*%
G36*
G01*
X118449998Y-157700000D02*
X119350002Y-157700000D01*
G75*
G02*
X119600000Y-157949998I0J-249998D01*
G01*
X119600000Y-158475002D01*
G75*
G02*
X119350002Y-158725000I-249998J0D01*
G01*
X118449998Y-158725000D01*
G75*
G02*
X118200000Y-158475002I0J249998D01*
G01*
X118200000Y-157949998D01*
G75*
G02*
X118449998Y-157700000I249998J0D01*
G01*
G37*
G36*
G01*
X118449998Y-155875000D02*
X119350002Y-155875000D01*
G75*
G02*
X119600000Y-156124998I0J-249998D01*
G01*
X119600000Y-156650002D01*
G75*
G02*
X119350002Y-156900000I-249998J0D01*
G01*
X118449998Y-156900000D01*
G75*
G02*
X118200000Y-156650002I0J249998D01*
G01*
X118200000Y-156124998D01*
G75*
G02*
X118449998Y-155875000I249998J0D01*
G01*
G37*
%TD*%
%TO.C,R5*%
G36*
G01*
X118349998Y-166000000D02*
X119250002Y-166000000D01*
G75*
G02*
X119500000Y-166249998I0J-249998D01*
G01*
X119500000Y-166775002D01*
G75*
G02*
X119250002Y-167025000I-249998J0D01*
G01*
X118349998Y-167025000D01*
G75*
G02*
X118100000Y-166775002I0J249998D01*
G01*
X118100000Y-166249998D01*
G75*
G02*
X118349998Y-166000000I249998J0D01*
G01*
G37*
G36*
G01*
X118349998Y-164175000D02*
X119250002Y-164175000D01*
G75*
G02*
X119500000Y-164424998I0J-249998D01*
G01*
X119500000Y-164950002D01*
G75*
G02*
X119250002Y-165200000I-249998J0D01*
G01*
X118349998Y-165200000D01*
G75*
G02*
X118100000Y-164950002I0J249998D01*
G01*
X118100000Y-164424998D01*
G75*
G02*
X118349998Y-164175000I249998J0D01*
G01*
G37*
%TD*%
%TO.C,R4*%
G36*
G01*
X110149998Y-155900000D02*
X111050002Y-155900000D01*
G75*
G02*
X111300000Y-156149998I0J-249998D01*
G01*
X111300000Y-156675002D01*
G75*
G02*
X111050002Y-156925000I-249998J0D01*
G01*
X110149998Y-156925000D01*
G75*
G02*
X109900000Y-156675002I0J249998D01*
G01*
X109900000Y-156149998D01*
G75*
G02*
X110149998Y-155900000I249998J0D01*
G01*
G37*
G36*
G01*
X110149998Y-154075000D02*
X111050002Y-154075000D01*
G75*
G02*
X111300000Y-154324998I0J-249998D01*
G01*
X111300000Y-154850002D01*
G75*
G02*
X111050002Y-155100000I-249998J0D01*
G01*
X110149998Y-155100000D01*
G75*
G02*
X109900000Y-154850002I0J249998D01*
G01*
X109900000Y-154324998D01*
G75*
G02*
X110149998Y-154075000I249998J0D01*
G01*
G37*
%TD*%
%TO.C,R3*%
G36*
G01*
X109949998Y-166600000D02*
X110850002Y-166600000D01*
G75*
G02*
X111100000Y-166849998I0J-249998D01*
G01*
X111100000Y-167375002D01*
G75*
G02*
X110850002Y-167625000I-249998J0D01*
G01*
X109949998Y-167625000D01*
G75*
G02*
X109700000Y-167375002I0J249998D01*
G01*
X109700000Y-166849998D01*
G75*
G02*
X109949998Y-166600000I249998J0D01*
G01*
G37*
G36*
G01*
X109949998Y-164775000D02*
X110850002Y-164775000D01*
G75*
G02*
X111100000Y-165024998I0J-249998D01*
G01*
X111100000Y-165550002D01*
G75*
G02*
X110850002Y-165800000I-249998J0D01*
G01*
X109949998Y-165800000D01*
G75*
G02*
X109700000Y-165550002I0J249998D01*
G01*
X109700000Y-165024998D01*
G75*
G02*
X109949998Y-164775000I249998J0D01*
G01*
G37*
%TD*%
%TO.C,R2*%
G36*
G01*
X72949998Y-195400000D02*
X73850002Y-195400000D01*
G75*
G02*
X74100000Y-195649998I0J-249998D01*
G01*
X74100000Y-196175002D01*
G75*
G02*
X73850002Y-196425000I-249998J0D01*
G01*
X72949998Y-196425000D01*
G75*
G02*
X72700000Y-196175002I0J249998D01*
G01*
X72700000Y-195649998D01*
G75*
G02*
X72949998Y-195400000I249998J0D01*
G01*
G37*
G36*
G01*
X72949998Y-193575000D02*
X73850002Y-193575000D01*
G75*
G02*
X74100000Y-193824998I0J-249998D01*
G01*
X74100000Y-194350002D01*
G75*
G02*
X73850002Y-194600000I-249998J0D01*
G01*
X72949998Y-194600000D01*
G75*
G02*
X72700000Y-194350002I0J249998D01*
G01*
X72700000Y-193824998D01*
G75*
G02*
X72949998Y-193575000I249998J0D01*
G01*
G37*
%TD*%
%TO.C,R1*%
G36*
G01*
X76200000Y-193849998D02*
X76200000Y-194750002D01*
G75*
G02*
X75950002Y-195000000I-249998J0D01*
G01*
X75424998Y-195000000D01*
G75*
G02*
X75175000Y-194750002I0J249998D01*
G01*
X75175000Y-193849998D01*
G75*
G02*
X75424998Y-193600000I249998J0D01*
G01*
X75950002Y-193600000D01*
G75*
G02*
X76200000Y-193849998I0J-249998D01*
G01*
G37*
G36*
G01*
X78025000Y-193849998D02*
X78025000Y-194750002D01*
G75*
G02*
X77775002Y-195000000I-249998J0D01*
G01*
X77249998Y-195000000D01*
G75*
G02*
X77000000Y-194750002I0J249998D01*
G01*
X77000000Y-193849998D01*
G75*
G02*
X77249998Y-193600000I249998J0D01*
G01*
X77775002Y-193600000D01*
G75*
G02*
X78025000Y-193849998I0J-249998D01*
G01*
G37*
%TD*%
%TO.C,L10*%
G36*
G01*
X144425000Y-174225000D02*
X144425000Y-176375000D01*
G75*
G02*
X144175000Y-176625000I-250000J0D01*
G01*
X143425000Y-176625000D01*
G75*
G02*
X143175000Y-176375000I0J250000D01*
G01*
X143175000Y-174225000D01*
G75*
G02*
X143425000Y-173975000I250000J0D01*
G01*
X144175000Y-173975000D01*
G75*
G02*
X144425000Y-174225000I0J-250000D01*
G01*
G37*
G36*
G01*
X147225000Y-174225000D02*
X147225000Y-176375000D01*
G75*
G02*
X146975000Y-176625000I-250000J0D01*
G01*
X146225000Y-176625000D01*
G75*
G02*
X145975000Y-176375000I0J250000D01*
G01*
X145975000Y-174225000D01*
G75*
G02*
X146225000Y-173975000I250000J0D01*
G01*
X146975000Y-173975000D01*
G75*
G02*
X147225000Y-174225000I0J-250000D01*
G01*
G37*
%TD*%
%TO.C,L9*%
G36*
G01*
X135543750Y-174350000D02*
X136056250Y-174350000D01*
G75*
G02*
X136275000Y-174568750I0J-218750D01*
G01*
X136275000Y-175006250D01*
G75*
G02*
X136056250Y-175225000I-218750J0D01*
G01*
X135543750Y-175225000D01*
G75*
G02*
X135325000Y-175006250I0J218750D01*
G01*
X135325000Y-174568750D01*
G75*
G02*
X135543750Y-174350000I218750J0D01*
G01*
G37*
G36*
G01*
X135543750Y-172775000D02*
X136056250Y-172775000D01*
G75*
G02*
X136275000Y-172993750I0J-218750D01*
G01*
X136275000Y-173431250D01*
G75*
G02*
X136056250Y-173650000I-218750J0D01*
G01*
X135543750Y-173650000D01*
G75*
G02*
X135325000Y-173431250I0J218750D01*
G01*
X135325000Y-172993750D01*
G75*
G02*
X135543750Y-172775000I218750J0D01*
G01*
G37*
%TD*%
%TO.C,L8*%
G36*
G01*
X137143750Y-174350000D02*
X137656250Y-174350000D01*
G75*
G02*
X137875000Y-174568750I0J-218750D01*
G01*
X137875000Y-175006250D01*
G75*
G02*
X137656250Y-175225000I-218750J0D01*
G01*
X137143750Y-175225000D01*
G75*
G02*
X136925000Y-175006250I0J218750D01*
G01*
X136925000Y-174568750D01*
G75*
G02*
X137143750Y-174350000I218750J0D01*
G01*
G37*
G36*
G01*
X137143750Y-172775000D02*
X137656250Y-172775000D01*
G75*
G02*
X137875000Y-172993750I0J-218750D01*
G01*
X137875000Y-173431250D01*
G75*
G02*
X137656250Y-173650000I-218750J0D01*
G01*
X137143750Y-173650000D01*
G75*
G02*
X136925000Y-173431250I0J218750D01*
G01*
X136925000Y-172993750D01*
G75*
G02*
X137143750Y-172775000I218750J0D01*
G01*
G37*
%TD*%
%TO.C,L7*%
G36*
G01*
X140650000Y-178556250D02*
X140650000Y-178043750D01*
G75*
G02*
X140868750Y-177825000I218750J0D01*
G01*
X141306250Y-177825000D01*
G75*
G02*
X141525000Y-178043750I0J-218750D01*
G01*
X141525000Y-178556250D01*
G75*
G02*
X141306250Y-178775000I-218750J0D01*
G01*
X140868750Y-178775000D01*
G75*
G02*
X140650000Y-178556250I0J218750D01*
G01*
G37*
G36*
G01*
X139075000Y-178556250D02*
X139075000Y-178043750D01*
G75*
G02*
X139293750Y-177825000I218750J0D01*
G01*
X139731250Y-177825000D01*
G75*
G02*
X139950000Y-178043750I0J-218750D01*
G01*
X139950000Y-178556250D01*
G75*
G02*
X139731250Y-178775000I-218750J0D01*
G01*
X139293750Y-178775000D01*
G75*
G02*
X139075000Y-178556250I0J218750D01*
G01*
G37*
%TD*%
%TO.C,L6*%
G36*
G01*
X132450000Y-178143750D02*
X132450000Y-178656250D01*
G75*
G02*
X132231250Y-178875000I-218750J0D01*
G01*
X131793750Y-178875000D01*
G75*
G02*
X131575000Y-178656250I0J218750D01*
G01*
X131575000Y-178143750D01*
G75*
G02*
X131793750Y-177925000I218750J0D01*
G01*
X132231250Y-177925000D01*
G75*
G02*
X132450000Y-178143750I0J-218750D01*
G01*
G37*
G36*
G01*
X134025000Y-178143750D02*
X134025000Y-178656250D01*
G75*
G02*
X133806250Y-178875000I-218750J0D01*
G01*
X133368750Y-178875000D01*
G75*
G02*
X133150000Y-178656250I0J218750D01*
G01*
X133150000Y-178143750D01*
G75*
G02*
X133368750Y-177925000I218750J0D01*
G01*
X133806250Y-177925000D01*
G75*
G02*
X134025000Y-178143750I0J-218750D01*
G01*
G37*
%TD*%
%TO.C,L5*%
G36*
G01*
X138125000Y-145281250D02*
X138125000Y-144518750D01*
G75*
G02*
X138343750Y-144300000I218750J0D01*
G01*
X138781250Y-144300000D01*
G75*
G02*
X139000000Y-144518750I0J-218750D01*
G01*
X139000000Y-145281250D01*
G75*
G02*
X138781250Y-145500000I-218750J0D01*
G01*
X138343750Y-145500000D01*
G75*
G02*
X138125000Y-145281250I0J218750D01*
G01*
G37*
G36*
G01*
X136000000Y-145281250D02*
X136000000Y-144518750D01*
G75*
G02*
X136218750Y-144300000I218750J0D01*
G01*
X136656250Y-144300000D01*
G75*
G02*
X136875000Y-144518750I0J-218750D01*
G01*
X136875000Y-145281250D01*
G75*
G02*
X136656250Y-145500000I-218750J0D01*
G01*
X136218750Y-145500000D01*
G75*
G02*
X136000000Y-145281250I0J218750D01*
G01*
G37*
%TD*%
%TO.C,L4*%
G36*
G01*
X105675000Y-145625000D02*
X103525000Y-145625000D01*
G75*
G02*
X103275000Y-145375000I0J250000D01*
G01*
X103275000Y-144625000D01*
G75*
G02*
X103525000Y-144375000I250000J0D01*
G01*
X105675000Y-144375000D01*
G75*
G02*
X105925000Y-144625000I0J-250000D01*
G01*
X105925000Y-145375000D01*
G75*
G02*
X105675000Y-145625000I-250000J0D01*
G01*
G37*
G36*
G01*
X105675000Y-148425000D02*
X103525000Y-148425000D01*
G75*
G02*
X103275000Y-148175000I0J250000D01*
G01*
X103275000Y-147425000D01*
G75*
G02*
X103525000Y-147175000I250000J0D01*
G01*
X105675000Y-147175000D01*
G75*
G02*
X105925000Y-147425000I0J-250000D01*
G01*
X105925000Y-148175000D01*
G75*
G02*
X105675000Y-148425000I-250000J0D01*
G01*
G37*
%TD*%
%TO.C,L3*%
G36*
G01*
X122675000Y-165825000D02*
X120525000Y-165825000D01*
G75*
G02*
X120275000Y-165575000I0J250000D01*
G01*
X120275000Y-164825000D01*
G75*
G02*
X120525000Y-164575000I250000J0D01*
G01*
X122675000Y-164575000D01*
G75*
G02*
X122925000Y-164825000I0J-250000D01*
G01*
X122925000Y-165575000D01*
G75*
G02*
X122675000Y-165825000I-250000J0D01*
G01*
G37*
G36*
G01*
X122675000Y-168625000D02*
X120525000Y-168625000D01*
G75*
G02*
X120275000Y-168375000I0J250000D01*
G01*
X120275000Y-167625000D01*
G75*
G02*
X120525000Y-167375000I250000J0D01*
G01*
X122675000Y-167375000D01*
G75*
G02*
X122925000Y-167625000I0J-250000D01*
G01*
X122925000Y-168375000D01*
G75*
G02*
X122675000Y-168625000I-250000J0D01*
G01*
G37*
%TD*%
%TO.C,L2*%
G36*
G01*
X130325000Y-164775000D02*
X132475000Y-164775000D01*
G75*
G02*
X132725000Y-165025000I0J-250000D01*
G01*
X132725000Y-165775000D01*
G75*
G02*
X132475000Y-166025000I-250000J0D01*
G01*
X130325000Y-166025000D01*
G75*
G02*
X130075000Y-165775000I0J250000D01*
G01*
X130075000Y-165025000D01*
G75*
G02*
X130325000Y-164775000I250000J0D01*
G01*
G37*
G36*
G01*
X130325000Y-161975000D02*
X132475000Y-161975000D01*
G75*
G02*
X132725000Y-162225000I0J-250000D01*
G01*
X132725000Y-162975000D01*
G75*
G02*
X132475000Y-163225000I-250000J0D01*
G01*
X130325000Y-163225000D01*
G75*
G02*
X130075000Y-162975000I0J250000D01*
G01*
X130075000Y-162225000D01*
G75*
G02*
X130325000Y-161975000I250000J0D01*
G01*
G37*
%TD*%
%TO.C,L1*%
G36*
G01*
X56125000Y-152775000D02*
X58275000Y-152775000D01*
G75*
G02*
X58525000Y-153025000I0J-250000D01*
G01*
X58525000Y-153775000D01*
G75*
G02*
X58275000Y-154025000I-250000J0D01*
G01*
X56125000Y-154025000D01*
G75*
G02*
X55875000Y-153775000I0J250000D01*
G01*
X55875000Y-153025000D01*
G75*
G02*
X56125000Y-152775000I250000J0D01*
G01*
G37*
G36*
G01*
X56125000Y-149975000D02*
X58275000Y-149975000D01*
G75*
G02*
X58525000Y-150225000I0J-250000D01*
G01*
X58525000Y-150975000D01*
G75*
G02*
X58275000Y-151225000I-250000J0D01*
G01*
X56125000Y-151225000D01*
G75*
G02*
X55875000Y-150975000I0J250000D01*
G01*
X55875000Y-150225000D01*
G75*
G02*
X56125000Y-149975000I250000J0D01*
G01*
G37*
%TD*%
D12*
%TO.C,J7*%
X149950000Y-156700000D03*
X129450000Y-156700000D03*
D23*
X149950000Y-151850000D03*
X129450000Y-151850000D03*
X149950000Y-144350000D03*
X129450000Y-144350000D03*
D12*
X149950000Y-139500000D03*
X129450000Y-139500000D03*
D24*
X148300000Y-158350000D03*
X148300000Y-137850000D03*
D25*
X143450000Y-158350000D03*
X143450000Y-137850000D03*
X135950000Y-158350000D03*
X135950000Y-137850000D03*
D24*
X131100000Y-158350000D03*
X131100000Y-137850000D03*
D14*
X129450000Y-158350000D03*
X149950000Y-158350000D03*
X149950000Y-137850000D03*
X129450000Y-137850000D03*
%TD*%
D26*
%TO.C,J5*%
X138900000Y-130500000D03*
D27*
X136075000Y-130700000D03*
X141725000Y-130700000D03*
%TD*%
D28*
%TO.C,J3*%
X62300000Y-188100000D03*
D29*
X60300000Y-195500000D03*
D30*
X67400000Y-195600000D03*
D31*
X60200000Y-191800000D03*
X66200000Y-191900000D03*
%TD*%
%TO.C,C50*%
G36*
G01*
X143550000Y-198250000D02*
X144650000Y-198250000D01*
G75*
G02*
X144900000Y-198500000I0J-250000D01*
G01*
X144900000Y-201500000D01*
G75*
G02*
X144650000Y-201750000I-250000J0D01*
G01*
X143550000Y-201750000D01*
G75*
G02*
X143300000Y-201500000I0J250000D01*
G01*
X143300000Y-198500000D01*
G75*
G02*
X143550000Y-198250000I250000J0D01*
G01*
G37*
G36*
G01*
X143550000Y-192850000D02*
X144650000Y-192850000D01*
G75*
G02*
X144900000Y-193100000I0J-250000D01*
G01*
X144900000Y-196100000D01*
G75*
G02*
X144650000Y-196350000I-250000J0D01*
G01*
X143550000Y-196350000D01*
G75*
G02*
X143300000Y-196100000I0J250000D01*
G01*
X143300000Y-193100000D01*
G75*
G02*
X143550000Y-192850000I250000J0D01*
G01*
G37*
%TD*%
%TO.C,C49*%
G36*
G01*
X146050000Y-185800000D02*
X147150000Y-185800000D01*
G75*
G02*
X147400000Y-186050000I0J-250000D01*
G01*
X147400000Y-188150000D01*
G75*
G02*
X147150000Y-188400000I-250000J0D01*
G01*
X146050000Y-188400000D01*
G75*
G02*
X145800000Y-188150000I0J250000D01*
G01*
X145800000Y-186050000D01*
G75*
G02*
X146050000Y-185800000I250000J0D01*
G01*
G37*
G36*
G01*
X146050000Y-182200000D02*
X147150000Y-182200000D01*
G75*
G02*
X147400000Y-182450000I0J-250000D01*
G01*
X147400000Y-184550000D01*
G75*
G02*
X147150000Y-184800000I-250000J0D01*
G01*
X146050000Y-184800000D01*
G75*
G02*
X145800000Y-184550000I0J250000D01*
G01*
X145800000Y-182450000D01*
G75*
G02*
X146050000Y-182200000I250000J0D01*
G01*
G37*
%TD*%
%TO.C,C48*%
G36*
G01*
X128600000Y-175425000D02*
X128600000Y-176375000D01*
G75*
G02*
X128350000Y-176625000I-250000J0D01*
G01*
X127850000Y-176625000D01*
G75*
G02*
X127600000Y-176375000I0J250000D01*
G01*
X127600000Y-175425000D01*
G75*
G02*
X127850000Y-175175000I250000J0D01*
G01*
X128350000Y-175175000D01*
G75*
G02*
X128600000Y-175425000I0J-250000D01*
G01*
G37*
G36*
G01*
X130500000Y-175425000D02*
X130500000Y-176375000D01*
G75*
G02*
X130250000Y-176625000I-250000J0D01*
G01*
X129750000Y-176625000D01*
G75*
G02*
X129500000Y-176375000I0J250000D01*
G01*
X129500000Y-175425000D01*
G75*
G02*
X129750000Y-175175000I250000J0D01*
G01*
X130250000Y-175175000D01*
G75*
G02*
X130500000Y-175425000I0J-250000D01*
G01*
G37*
%TD*%
%TO.C,C47*%
G36*
G01*
X128350000Y-178525000D02*
X128350000Y-179475000D01*
G75*
G02*
X128100000Y-179725000I-250000J0D01*
G01*
X127600000Y-179725000D01*
G75*
G02*
X127350000Y-179475000I0J250000D01*
G01*
X127350000Y-178525000D01*
G75*
G02*
X127600000Y-178275000I250000J0D01*
G01*
X128100000Y-178275000D01*
G75*
G02*
X128350000Y-178525000I0J-250000D01*
G01*
G37*
G36*
G01*
X130250000Y-178525000D02*
X130250000Y-179475000D01*
G75*
G02*
X130000000Y-179725000I-250000J0D01*
G01*
X129500000Y-179725000D01*
G75*
G02*
X129250000Y-179475000I0J250000D01*
G01*
X129250000Y-178525000D01*
G75*
G02*
X129500000Y-178275000I250000J0D01*
G01*
X130000000Y-178275000D01*
G75*
G02*
X130250000Y-178525000I0J-250000D01*
G01*
G37*
%TD*%
%TO.C,C46*%
G36*
G01*
X135975000Y-176950000D02*
X135025000Y-176950000D01*
G75*
G02*
X134775000Y-176700000I0J250000D01*
G01*
X134775000Y-176200000D01*
G75*
G02*
X135025000Y-175950000I250000J0D01*
G01*
X135975000Y-175950000D01*
G75*
G02*
X136225000Y-176200000I0J-250000D01*
G01*
X136225000Y-176700000D01*
G75*
G02*
X135975000Y-176950000I-250000J0D01*
G01*
G37*
G36*
G01*
X135975000Y-178850000D02*
X135025000Y-178850000D01*
G75*
G02*
X134775000Y-178600000I0J250000D01*
G01*
X134775000Y-178100000D01*
G75*
G02*
X135025000Y-177850000I250000J0D01*
G01*
X135975000Y-177850000D01*
G75*
G02*
X136225000Y-178100000I0J-250000D01*
G01*
X136225000Y-178600000D01*
G75*
G02*
X135975000Y-178850000I-250000J0D01*
G01*
G37*
%TD*%
%TO.C,C45*%
G36*
G01*
X138075000Y-176950000D02*
X137125000Y-176950000D01*
G75*
G02*
X136875000Y-176700000I0J250000D01*
G01*
X136875000Y-176200000D01*
G75*
G02*
X137125000Y-175950000I250000J0D01*
G01*
X138075000Y-175950000D01*
G75*
G02*
X138325000Y-176200000I0J-250000D01*
G01*
X138325000Y-176700000D01*
G75*
G02*
X138075000Y-176950000I-250000J0D01*
G01*
G37*
G36*
G01*
X138075000Y-178850000D02*
X137125000Y-178850000D01*
G75*
G02*
X136875000Y-178600000I0J250000D01*
G01*
X136875000Y-178100000D01*
G75*
G02*
X137125000Y-177850000I250000J0D01*
G01*
X138075000Y-177850000D01*
G75*
G02*
X138325000Y-178100000I0J-250000D01*
G01*
X138325000Y-178600000D01*
G75*
G02*
X138075000Y-178850000I-250000J0D01*
G01*
G37*
%TD*%
%TO.C,C44*%
G36*
G01*
X129425000Y-182850000D02*
X130375000Y-182850000D01*
G75*
G02*
X130625000Y-183100000I0J-250000D01*
G01*
X130625000Y-183600000D01*
G75*
G02*
X130375000Y-183850000I-250000J0D01*
G01*
X129425000Y-183850000D01*
G75*
G02*
X129175000Y-183600000I0J250000D01*
G01*
X129175000Y-183100000D01*
G75*
G02*
X129425000Y-182850000I250000J0D01*
G01*
G37*
G36*
G01*
X129425000Y-180950000D02*
X130375000Y-180950000D01*
G75*
G02*
X130625000Y-181200000I0J-250000D01*
G01*
X130625000Y-181700000D01*
G75*
G02*
X130375000Y-181950000I-250000J0D01*
G01*
X129425000Y-181950000D01*
G75*
G02*
X129175000Y-181700000I0J250000D01*
G01*
X129175000Y-181200000D01*
G75*
G02*
X129425000Y-180950000I250000J0D01*
G01*
G37*
%TD*%
%TO.C,C43*%
G36*
G01*
X141050000Y-185875000D02*
X141050000Y-184925000D01*
G75*
G02*
X141300000Y-184675000I250000J0D01*
G01*
X141800000Y-184675000D01*
G75*
G02*
X142050000Y-184925000I0J-250000D01*
G01*
X142050000Y-185875000D01*
G75*
G02*
X141800000Y-186125000I-250000J0D01*
G01*
X141300000Y-186125000D01*
G75*
G02*
X141050000Y-185875000I0J250000D01*
G01*
G37*
G36*
G01*
X139150000Y-185875000D02*
X139150000Y-184925000D01*
G75*
G02*
X139400000Y-184675000I250000J0D01*
G01*
X139900000Y-184675000D01*
G75*
G02*
X140150000Y-184925000I0J-250000D01*
G01*
X140150000Y-185875000D01*
G75*
G02*
X139900000Y-186125000I-250000J0D01*
G01*
X139400000Y-186125000D01*
G75*
G02*
X139150000Y-185875000I0J250000D01*
G01*
G37*
%TD*%
%TO.C,C42*%
G36*
G01*
X127225000Y-182750000D02*
X128175000Y-182750000D01*
G75*
G02*
X128425000Y-183000000I0J-250000D01*
G01*
X128425000Y-183500000D01*
G75*
G02*
X128175000Y-183750000I-250000J0D01*
G01*
X127225000Y-183750000D01*
G75*
G02*
X126975000Y-183500000I0J250000D01*
G01*
X126975000Y-183000000D01*
G75*
G02*
X127225000Y-182750000I250000J0D01*
G01*
G37*
G36*
G01*
X127225000Y-180850000D02*
X128175000Y-180850000D01*
G75*
G02*
X128425000Y-181100000I0J-250000D01*
G01*
X128425000Y-181600000D01*
G75*
G02*
X128175000Y-181850000I-250000J0D01*
G01*
X127225000Y-181850000D01*
G75*
G02*
X126975000Y-181600000I0J250000D01*
G01*
X126975000Y-181100000D01*
G75*
G02*
X127225000Y-180850000I250000J0D01*
G01*
G37*
%TD*%
%TO.C,C41*%
G36*
G01*
X141000000Y-183675000D02*
X141000000Y-182725000D01*
G75*
G02*
X141250000Y-182475000I250000J0D01*
G01*
X141750000Y-182475000D01*
G75*
G02*
X142000000Y-182725000I0J-250000D01*
G01*
X142000000Y-183675000D01*
G75*
G02*
X141750000Y-183925000I-250000J0D01*
G01*
X141250000Y-183925000D01*
G75*
G02*
X141000000Y-183675000I0J250000D01*
G01*
G37*
G36*
G01*
X139100000Y-183675000D02*
X139100000Y-182725000D01*
G75*
G02*
X139350000Y-182475000I250000J0D01*
G01*
X139850000Y-182475000D01*
G75*
G02*
X140100000Y-182725000I0J-250000D01*
G01*
X140100000Y-183675000D01*
G75*
G02*
X139850000Y-183925000I-250000J0D01*
G01*
X139350000Y-183925000D01*
G75*
G02*
X139100000Y-183675000I0J250000D01*
G01*
G37*
%TD*%
%TO.C,C40*%
G36*
G01*
X144075000Y-179200000D02*
X143125000Y-179200000D01*
G75*
G02*
X142875000Y-178950000I0J250000D01*
G01*
X142875000Y-178450000D01*
G75*
G02*
X143125000Y-178200000I250000J0D01*
G01*
X144075000Y-178200000D01*
G75*
G02*
X144325000Y-178450000I0J-250000D01*
G01*
X144325000Y-178950000D01*
G75*
G02*
X144075000Y-179200000I-250000J0D01*
G01*
G37*
G36*
G01*
X144075000Y-181100000D02*
X143125000Y-181100000D01*
G75*
G02*
X142875000Y-180850000I0J250000D01*
G01*
X142875000Y-180350000D01*
G75*
G02*
X143125000Y-180100000I250000J0D01*
G01*
X144075000Y-180100000D01*
G75*
G02*
X144325000Y-180350000I0J-250000D01*
G01*
X144325000Y-180850000D01*
G75*
G02*
X144075000Y-181100000I-250000J0D01*
G01*
G37*
%TD*%
%TO.C,C39*%
G36*
G01*
X146875000Y-179150000D02*
X145925000Y-179150000D01*
G75*
G02*
X145675000Y-178900000I0J250000D01*
G01*
X145675000Y-178400000D01*
G75*
G02*
X145925000Y-178150000I250000J0D01*
G01*
X146875000Y-178150000D01*
G75*
G02*
X147125000Y-178400000I0J-250000D01*
G01*
X147125000Y-178900000D01*
G75*
G02*
X146875000Y-179150000I-250000J0D01*
G01*
G37*
G36*
G01*
X146875000Y-181050000D02*
X145925000Y-181050000D01*
G75*
G02*
X145675000Y-180800000I0J250000D01*
G01*
X145675000Y-180300000D01*
G75*
G02*
X145925000Y-180050000I250000J0D01*
G01*
X146875000Y-180050000D01*
G75*
G02*
X147125000Y-180300000I0J-250000D01*
G01*
X147125000Y-180800000D01*
G75*
G02*
X146875000Y-181050000I-250000J0D01*
G01*
G37*
%TD*%
%TO.C,C38*%
G36*
G01*
X128175000Y-185400000D02*
X127225000Y-185400000D01*
G75*
G02*
X126975000Y-185150000I0J250000D01*
G01*
X126975000Y-184650000D01*
G75*
G02*
X127225000Y-184400000I250000J0D01*
G01*
X128175000Y-184400000D01*
G75*
G02*
X128425000Y-184650000I0J-250000D01*
G01*
X128425000Y-185150000D01*
G75*
G02*
X128175000Y-185400000I-250000J0D01*
G01*
G37*
G36*
G01*
X128175000Y-187300000D02*
X127225000Y-187300000D01*
G75*
G02*
X126975000Y-187050000I0J250000D01*
G01*
X126975000Y-186550000D01*
G75*
G02*
X127225000Y-186300000I250000J0D01*
G01*
X128175000Y-186300000D01*
G75*
G02*
X128425000Y-186550000I0J-250000D01*
G01*
X128425000Y-187050000D01*
G75*
G02*
X128175000Y-187300000I-250000J0D01*
G01*
G37*
%TD*%
%TO.C,C37*%
G36*
G01*
X136550000Y-140125000D02*
X136550000Y-141075000D01*
G75*
G02*
X136300000Y-141325000I-250000J0D01*
G01*
X135800000Y-141325000D01*
G75*
G02*
X135550000Y-141075000I0J250000D01*
G01*
X135550000Y-140125000D01*
G75*
G02*
X135800000Y-139875000I250000J0D01*
G01*
X136300000Y-139875000D01*
G75*
G02*
X136550000Y-140125000I0J-250000D01*
G01*
G37*
G36*
G01*
X138450000Y-140125000D02*
X138450000Y-141075000D01*
G75*
G02*
X138200000Y-141325000I-250000J0D01*
G01*
X137700000Y-141325000D01*
G75*
G02*
X137450000Y-141075000I0J250000D01*
G01*
X137450000Y-140125000D01*
G75*
G02*
X137700000Y-139875000I250000J0D01*
G01*
X138200000Y-139875000D01*
G75*
G02*
X138450000Y-140125000I0J-250000D01*
G01*
G37*
%TD*%
%TO.C,C36*%
G36*
G01*
X134375000Y-140950000D02*
X133425000Y-140950000D01*
G75*
G02*
X133175000Y-140700000I0J250000D01*
G01*
X133175000Y-140200000D01*
G75*
G02*
X133425000Y-139950000I250000J0D01*
G01*
X134375000Y-139950000D01*
G75*
G02*
X134625000Y-140200000I0J-250000D01*
G01*
X134625000Y-140700000D01*
G75*
G02*
X134375000Y-140950000I-250000J0D01*
G01*
G37*
G36*
G01*
X134375000Y-142850000D02*
X133425000Y-142850000D01*
G75*
G02*
X133175000Y-142600000I0J250000D01*
G01*
X133175000Y-142100000D01*
G75*
G02*
X133425000Y-141850000I250000J0D01*
G01*
X134375000Y-141850000D01*
G75*
G02*
X134625000Y-142100000I0J-250000D01*
G01*
X134625000Y-142600000D01*
G75*
G02*
X134375000Y-142850000I-250000J0D01*
G01*
G37*
%TD*%
%TO.C,C35*%
G36*
G01*
X139525000Y-142150000D02*
X140475000Y-142150000D01*
G75*
G02*
X140725000Y-142400000I0J-250000D01*
G01*
X140725000Y-142900000D01*
G75*
G02*
X140475000Y-143150000I-250000J0D01*
G01*
X139525000Y-143150000D01*
G75*
G02*
X139275000Y-142900000I0J250000D01*
G01*
X139275000Y-142400000D01*
G75*
G02*
X139525000Y-142150000I250000J0D01*
G01*
G37*
G36*
G01*
X139525000Y-140250000D02*
X140475000Y-140250000D01*
G75*
G02*
X140725000Y-140500000I0J-250000D01*
G01*
X140725000Y-141000000D01*
G75*
G02*
X140475000Y-141250000I-250000J0D01*
G01*
X139525000Y-141250000D01*
G75*
G02*
X139275000Y-141000000I0J250000D01*
G01*
X139275000Y-140500000D01*
G75*
G02*
X139525000Y-140250000I250000J0D01*
G01*
G37*
%TD*%
%TO.C,C34*%
G36*
G01*
X117350000Y-146200000D02*
X116250000Y-146200000D01*
G75*
G02*
X116000000Y-145950000I0J250000D01*
G01*
X116000000Y-143850000D01*
G75*
G02*
X116250000Y-143600000I250000J0D01*
G01*
X117350000Y-143600000D01*
G75*
G02*
X117600000Y-143850000I0J-250000D01*
G01*
X117600000Y-145950000D01*
G75*
G02*
X117350000Y-146200000I-250000J0D01*
G01*
G37*
G36*
G01*
X117350000Y-149800000D02*
X116250000Y-149800000D01*
G75*
G02*
X116000000Y-149550000I0J250000D01*
G01*
X116000000Y-147450000D01*
G75*
G02*
X116250000Y-147200000I250000J0D01*
G01*
X117350000Y-147200000D01*
G75*
G02*
X117600000Y-147450000I0J-250000D01*
G01*
X117600000Y-149550000D01*
G75*
G02*
X117350000Y-149800000I-250000J0D01*
G01*
G37*
%TD*%
%TO.C,C33*%
G36*
G01*
X139425000Y-155850000D02*
X140375000Y-155850000D01*
G75*
G02*
X140625000Y-156100000I0J-250000D01*
G01*
X140625000Y-156600000D01*
G75*
G02*
X140375000Y-156850000I-250000J0D01*
G01*
X139425000Y-156850000D01*
G75*
G02*
X139175000Y-156600000I0J250000D01*
G01*
X139175000Y-156100000D01*
G75*
G02*
X139425000Y-155850000I250000J0D01*
G01*
G37*
G36*
G01*
X139425000Y-153950000D02*
X140375000Y-153950000D01*
G75*
G02*
X140625000Y-154200000I0J-250000D01*
G01*
X140625000Y-154700000D01*
G75*
G02*
X140375000Y-154950000I-250000J0D01*
G01*
X139425000Y-154950000D01*
G75*
G02*
X139175000Y-154700000I0J250000D01*
G01*
X139175000Y-154200000D01*
G75*
G02*
X139425000Y-153950000I250000J0D01*
G01*
G37*
%TD*%
%TO.C,C32*%
G36*
G01*
X120975000Y-145750000D02*
X120025000Y-145750000D01*
G75*
G02*
X119775000Y-145500000I0J250000D01*
G01*
X119775000Y-145000000D01*
G75*
G02*
X120025000Y-144750000I250000J0D01*
G01*
X120975000Y-144750000D01*
G75*
G02*
X121225000Y-145000000I0J-250000D01*
G01*
X121225000Y-145500000D01*
G75*
G02*
X120975000Y-145750000I-250000J0D01*
G01*
G37*
G36*
G01*
X120975000Y-147650000D02*
X120025000Y-147650000D01*
G75*
G02*
X119775000Y-147400000I0J250000D01*
G01*
X119775000Y-146900000D01*
G75*
G02*
X120025000Y-146650000I250000J0D01*
G01*
X120975000Y-146650000D01*
G75*
G02*
X121225000Y-146900000I0J-250000D01*
G01*
X121225000Y-147400000D01*
G75*
G02*
X120975000Y-147650000I-250000J0D01*
G01*
G37*
%TD*%
%TO.C,C31*%
G36*
G01*
X132075000Y-190350000D02*
X131125000Y-190350000D01*
G75*
G02*
X130875000Y-190100000I0J250000D01*
G01*
X130875000Y-189600000D01*
G75*
G02*
X131125000Y-189350000I250000J0D01*
G01*
X132075000Y-189350000D01*
G75*
G02*
X132325000Y-189600000I0J-250000D01*
G01*
X132325000Y-190100000D01*
G75*
G02*
X132075000Y-190350000I-250000J0D01*
G01*
G37*
G36*
G01*
X132075000Y-192250000D02*
X131125000Y-192250000D01*
G75*
G02*
X130875000Y-192000000I0J250000D01*
G01*
X130875000Y-191500000D01*
G75*
G02*
X131125000Y-191250000I250000J0D01*
G01*
X132075000Y-191250000D01*
G75*
G02*
X132325000Y-191500000I0J-250000D01*
G01*
X132325000Y-192000000D01*
G75*
G02*
X132075000Y-192250000I-250000J0D01*
G01*
G37*
%TD*%
%TO.C,C30*%
G36*
G01*
X142300000Y-163475000D02*
X142300000Y-162525000D01*
G75*
G02*
X142550000Y-162275000I250000J0D01*
G01*
X143050000Y-162275000D01*
G75*
G02*
X143300000Y-162525000I0J-250000D01*
G01*
X143300000Y-163475000D01*
G75*
G02*
X143050000Y-163725000I-250000J0D01*
G01*
X142550000Y-163725000D01*
G75*
G02*
X142300000Y-163475000I0J250000D01*
G01*
G37*
G36*
G01*
X140400000Y-163475000D02*
X140400000Y-162525000D01*
G75*
G02*
X140650000Y-162275000I250000J0D01*
G01*
X141150000Y-162275000D01*
G75*
G02*
X141400000Y-162525000I0J-250000D01*
G01*
X141400000Y-163475000D01*
G75*
G02*
X141150000Y-163725000I-250000J0D01*
G01*
X140650000Y-163725000D01*
G75*
G02*
X140400000Y-163475000I0J250000D01*
G01*
G37*
%TD*%
%TO.C,C29*%
G36*
G01*
X126525000Y-191200000D02*
X127475000Y-191200000D01*
G75*
G02*
X127725000Y-191450000I0J-250000D01*
G01*
X127725000Y-191950000D01*
G75*
G02*
X127475000Y-192200000I-250000J0D01*
G01*
X126525000Y-192200000D01*
G75*
G02*
X126275000Y-191950000I0J250000D01*
G01*
X126275000Y-191450000D01*
G75*
G02*
X126525000Y-191200000I250000J0D01*
G01*
G37*
G36*
G01*
X126525000Y-189300000D02*
X127475000Y-189300000D01*
G75*
G02*
X127725000Y-189550000I0J-250000D01*
G01*
X127725000Y-190050000D01*
G75*
G02*
X127475000Y-190300000I-250000J0D01*
G01*
X126525000Y-190300000D01*
G75*
G02*
X126275000Y-190050000I0J250000D01*
G01*
X126275000Y-189550000D01*
G75*
G02*
X126525000Y-189300000I250000J0D01*
G01*
G37*
%TD*%
%TO.C,C28*%
G36*
G01*
X142300000Y-166275000D02*
X142300000Y-165325000D01*
G75*
G02*
X142550000Y-165075000I250000J0D01*
G01*
X143050000Y-165075000D01*
G75*
G02*
X143300000Y-165325000I0J-250000D01*
G01*
X143300000Y-166275000D01*
G75*
G02*
X143050000Y-166525000I-250000J0D01*
G01*
X142550000Y-166525000D01*
G75*
G02*
X142300000Y-166275000I0J250000D01*
G01*
G37*
G36*
G01*
X140400000Y-166275000D02*
X140400000Y-165325000D01*
G75*
G02*
X140650000Y-165075000I250000J0D01*
G01*
X141150000Y-165075000D01*
G75*
G02*
X141400000Y-165325000I0J-250000D01*
G01*
X141400000Y-166275000D01*
G75*
G02*
X141150000Y-166525000I-250000J0D01*
G01*
X140650000Y-166525000D01*
G75*
G02*
X140400000Y-166275000I0J250000D01*
G01*
G37*
%TD*%
%TO.C,C27*%
G36*
G01*
X91350000Y-136425000D02*
X91350000Y-137375000D01*
G75*
G02*
X91100000Y-137625000I-250000J0D01*
G01*
X90600000Y-137625000D01*
G75*
G02*
X90350000Y-137375000I0J250000D01*
G01*
X90350000Y-136425000D01*
G75*
G02*
X90600000Y-136175000I250000J0D01*
G01*
X91100000Y-136175000D01*
G75*
G02*
X91350000Y-136425000I0J-250000D01*
G01*
G37*
G36*
G01*
X93250000Y-136425000D02*
X93250000Y-137375000D01*
G75*
G02*
X93000000Y-137625000I-250000J0D01*
G01*
X92500000Y-137625000D01*
G75*
G02*
X92250000Y-137375000I0J250000D01*
G01*
X92250000Y-136425000D01*
G75*
G02*
X92500000Y-136175000I250000J0D01*
G01*
X93000000Y-136175000D01*
G75*
G02*
X93250000Y-136425000I0J-250000D01*
G01*
G37*
%TD*%
%TO.C,C26*%
G36*
G01*
X134475000Y-190200000D02*
X133525000Y-190200000D01*
G75*
G02*
X133275000Y-189950000I0J250000D01*
G01*
X133275000Y-189450000D01*
G75*
G02*
X133525000Y-189200000I250000J0D01*
G01*
X134475000Y-189200000D01*
G75*
G02*
X134725000Y-189450000I0J-250000D01*
G01*
X134725000Y-189950000D01*
G75*
G02*
X134475000Y-190200000I-250000J0D01*
G01*
G37*
G36*
G01*
X134475000Y-192100000D02*
X133525000Y-192100000D01*
G75*
G02*
X133275000Y-191850000I0J250000D01*
G01*
X133275000Y-191350000D01*
G75*
G02*
X133525000Y-191100000I250000J0D01*
G01*
X134475000Y-191100000D01*
G75*
G02*
X134725000Y-191350000I0J-250000D01*
G01*
X134725000Y-191850000D01*
G75*
G02*
X134475000Y-192100000I-250000J0D01*
G01*
G37*
%TD*%
%TO.C,C25*%
G36*
G01*
X109650000Y-145900000D02*
X108550000Y-145900000D01*
G75*
G02*
X108300000Y-145650000I0J250000D01*
G01*
X108300000Y-143550000D01*
G75*
G02*
X108550000Y-143300000I250000J0D01*
G01*
X109650000Y-143300000D01*
G75*
G02*
X109900000Y-143550000I0J-250000D01*
G01*
X109900000Y-145650000D01*
G75*
G02*
X109650000Y-145900000I-250000J0D01*
G01*
G37*
G36*
G01*
X109650000Y-149500000D02*
X108550000Y-149500000D01*
G75*
G02*
X108300000Y-149250000I0J250000D01*
G01*
X108300000Y-147150000D01*
G75*
G02*
X108550000Y-146900000I250000J0D01*
G01*
X109650000Y-146900000D01*
G75*
G02*
X109900000Y-147150000I0J-250000D01*
G01*
X109900000Y-149250000D01*
G75*
G02*
X109650000Y-149500000I-250000J0D01*
G01*
G37*
%TD*%
%TO.C,C24*%
G36*
G01*
X134475000Y-194250000D02*
X133525000Y-194250000D01*
G75*
G02*
X133275000Y-194000000I0J250000D01*
G01*
X133275000Y-193500000D01*
G75*
G02*
X133525000Y-193250000I250000J0D01*
G01*
X134475000Y-193250000D01*
G75*
G02*
X134725000Y-193500000I0J-250000D01*
G01*
X134725000Y-194000000D01*
G75*
G02*
X134475000Y-194250000I-250000J0D01*
G01*
G37*
G36*
G01*
X134475000Y-196150000D02*
X133525000Y-196150000D01*
G75*
G02*
X133275000Y-195900000I0J250000D01*
G01*
X133275000Y-195400000D01*
G75*
G02*
X133525000Y-195150000I250000J0D01*
G01*
X134475000Y-195150000D01*
G75*
G02*
X134725000Y-195400000I0J-250000D01*
G01*
X134725000Y-195900000D01*
G75*
G02*
X134475000Y-196150000I-250000J0D01*
G01*
G37*
%TD*%
%TO.C,C23*%
G36*
G01*
X83250000Y-143900000D02*
X84350000Y-143900000D01*
G75*
G02*
X84600000Y-144150000I0J-250000D01*
G01*
X84600000Y-146250000D01*
G75*
G02*
X84350000Y-146500000I-250000J0D01*
G01*
X83250000Y-146500000D01*
G75*
G02*
X83000000Y-146250000I0J250000D01*
G01*
X83000000Y-144150000D01*
G75*
G02*
X83250000Y-143900000I250000J0D01*
G01*
G37*
G36*
G01*
X83250000Y-140300000D02*
X84350000Y-140300000D01*
G75*
G02*
X84600000Y-140550000I0J-250000D01*
G01*
X84600000Y-142650000D01*
G75*
G02*
X84350000Y-142900000I-250000J0D01*
G01*
X83250000Y-142900000D01*
G75*
G02*
X83000000Y-142650000I0J250000D01*
G01*
X83000000Y-140550000D01*
G75*
G02*
X83250000Y-140300000I250000J0D01*
G01*
G37*
%TD*%
%TO.C,C22*%
G36*
G01*
X113475000Y-145950000D02*
X112525000Y-145950000D01*
G75*
G02*
X112275000Y-145700000I0J250000D01*
G01*
X112275000Y-145200000D01*
G75*
G02*
X112525000Y-144950000I250000J0D01*
G01*
X113475000Y-144950000D01*
G75*
G02*
X113725000Y-145200000I0J-250000D01*
G01*
X113725000Y-145700000D01*
G75*
G02*
X113475000Y-145950000I-250000J0D01*
G01*
G37*
G36*
G01*
X113475000Y-147850000D02*
X112525000Y-147850000D01*
G75*
G02*
X112275000Y-147600000I0J250000D01*
G01*
X112275000Y-147100000D01*
G75*
G02*
X112525000Y-146850000I250000J0D01*
G01*
X113475000Y-146850000D01*
G75*
G02*
X113725000Y-147100000I0J-250000D01*
G01*
X113725000Y-147600000D01*
G75*
G02*
X113475000Y-147850000I-250000J0D01*
G01*
G37*
%TD*%
%TO.C,C21*%
G36*
G01*
X85350000Y-139075000D02*
X85350000Y-138125000D01*
G75*
G02*
X85600000Y-137875000I250000J0D01*
G01*
X86100000Y-137875000D01*
G75*
G02*
X86350000Y-138125000I0J-250000D01*
G01*
X86350000Y-139075000D01*
G75*
G02*
X86100000Y-139325000I-250000J0D01*
G01*
X85600000Y-139325000D01*
G75*
G02*
X85350000Y-139075000I0J250000D01*
G01*
G37*
G36*
G01*
X83450000Y-139075000D02*
X83450000Y-138125000D01*
G75*
G02*
X83700000Y-137875000I250000J0D01*
G01*
X84200000Y-137875000D01*
G75*
G02*
X84450000Y-138125000I0J-250000D01*
G01*
X84450000Y-139075000D01*
G75*
G02*
X84200000Y-139325000I-250000J0D01*
G01*
X83700000Y-139325000D01*
G75*
G02*
X83450000Y-139075000I0J250000D01*
G01*
G37*
%TD*%
%TO.C,C20*%
G36*
G01*
X137550000Y-200875000D02*
X137550000Y-199925000D01*
G75*
G02*
X137800000Y-199675000I250000J0D01*
G01*
X138300000Y-199675000D01*
G75*
G02*
X138550000Y-199925000I0J-250000D01*
G01*
X138550000Y-200875000D01*
G75*
G02*
X138300000Y-201125000I-250000J0D01*
G01*
X137800000Y-201125000D01*
G75*
G02*
X137550000Y-200875000I0J250000D01*
G01*
G37*
G36*
G01*
X135650000Y-200875000D02*
X135650000Y-199925000D01*
G75*
G02*
X135900000Y-199675000I250000J0D01*
G01*
X136400000Y-199675000D01*
G75*
G02*
X136650000Y-199925000I0J-250000D01*
G01*
X136650000Y-200875000D01*
G75*
G02*
X136400000Y-201125000I-250000J0D01*
G01*
X135900000Y-201125000D01*
G75*
G02*
X135650000Y-200875000I0J250000D01*
G01*
G37*
%TD*%
%TO.C,C19*%
G36*
G01*
X142350000Y-168675000D02*
X142350000Y-167725000D01*
G75*
G02*
X142600000Y-167475000I250000J0D01*
G01*
X143100000Y-167475000D01*
G75*
G02*
X143350000Y-167725000I0J-250000D01*
G01*
X143350000Y-168675000D01*
G75*
G02*
X143100000Y-168925000I-250000J0D01*
G01*
X142600000Y-168925000D01*
G75*
G02*
X142350000Y-168675000I0J250000D01*
G01*
G37*
G36*
G01*
X140450000Y-168675000D02*
X140450000Y-167725000D01*
G75*
G02*
X140700000Y-167475000I250000J0D01*
G01*
X141200000Y-167475000D01*
G75*
G02*
X141450000Y-167725000I0J-250000D01*
G01*
X141450000Y-168675000D01*
G75*
G02*
X141200000Y-168925000I-250000J0D01*
G01*
X140700000Y-168925000D01*
G75*
G02*
X140450000Y-168675000I0J250000D01*
G01*
G37*
%TD*%
%TO.C,C18*%
G36*
G01*
X70075000Y-140600000D02*
X69125000Y-140600000D01*
G75*
G02*
X68875000Y-140350000I0J250000D01*
G01*
X68875000Y-139850000D01*
G75*
G02*
X69125000Y-139600000I250000J0D01*
G01*
X70075000Y-139600000D01*
G75*
G02*
X70325000Y-139850000I0J-250000D01*
G01*
X70325000Y-140350000D01*
G75*
G02*
X70075000Y-140600000I-250000J0D01*
G01*
G37*
G36*
G01*
X70075000Y-142500000D02*
X69125000Y-142500000D01*
G75*
G02*
X68875000Y-142250000I0J250000D01*
G01*
X68875000Y-141750000D01*
G75*
G02*
X69125000Y-141500000I250000J0D01*
G01*
X70075000Y-141500000D01*
G75*
G02*
X70325000Y-141750000I0J-250000D01*
G01*
X70325000Y-142250000D01*
G75*
G02*
X70075000Y-142500000I-250000J0D01*
G01*
G37*
%TD*%
%TO.C,C17*%
G36*
G01*
X129150000Y-167025000D02*
X129150000Y-167975000D01*
G75*
G02*
X128900000Y-168225000I-250000J0D01*
G01*
X128400000Y-168225000D01*
G75*
G02*
X128150000Y-167975000I0J250000D01*
G01*
X128150000Y-167025000D01*
G75*
G02*
X128400000Y-166775000I250000J0D01*
G01*
X128900000Y-166775000D01*
G75*
G02*
X129150000Y-167025000I0J-250000D01*
G01*
G37*
G36*
G01*
X131050000Y-167025000D02*
X131050000Y-167975000D01*
G75*
G02*
X130800000Y-168225000I-250000J0D01*
G01*
X130300000Y-168225000D01*
G75*
G02*
X130050000Y-167975000I0J250000D01*
G01*
X130050000Y-167025000D01*
G75*
G02*
X130300000Y-166775000I250000J0D01*
G01*
X130800000Y-166775000D01*
G75*
G02*
X131050000Y-167025000I0J-250000D01*
G01*
G37*
%TD*%
%TO.C,C16*%
G36*
G01*
X118000000Y-173875000D02*
X118000000Y-172925000D01*
G75*
G02*
X118250000Y-172675000I250000J0D01*
G01*
X118750000Y-172675000D01*
G75*
G02*
X119000000Y-172925000I0J-250000D01*
G01*
X119000000Y-173875000D01*
G75*
G02*
X118750000Y-174125000I-250000J0D01*
G01*
X118250000Y-174125000D01*
G75*
G02*
X118000000Y-173875000I0J250000D01*
G01*
G37*
G36*
G01*
X116100000Y-173875000D02*
X116100000Y-172925000D01*
G75*
G02*
X116350000Y-172675000I250000J0D01*
G01*
X116850000Y-172675000D01*
G75*
G02*
X117100000Y-172925000I0J-250000D01*
G01*
X117100000Y-173875000D01*
G75*
G02*
X116850000Y-174125000I-250000J0D01*
G01*
X116350000Y-174125000D01*
G75*
G02*
X116100000Y-173875000I0J250000D01*
G01*
G37*
%TD*%
%TO.C,C15*%
G36*
G01*
X64750000Y-140750000D02*
X63650000Y-140750000D01*
G75*
G02*
X63400000Y-140500000I0J250000D01*
G01*
X63400000Y-137500000D01*
G75*
G02*
X63650000Y-137250000I250000J0D01*
G01*
X64750000Y-137250000D01*
G75*
G02*
X65000000Y-137500000I0J-250000D01*
G01*
X65000000Y-140500000D01*
G75*
G02*
X64750000Y-140750000I-250000J0D01*
G01*
G37*
G36*
G01*
X64750000Y-146150000D02*
X63650000Y-146150000D01*
G75*
G02*
X63400000Y-145900000I0J250000D01*
G01*
X63400000Y-142900000D01*
G75*
G02*
X63650000Y-142650000I250000J0D01*
G01*
X64750000Y-142650000D01*
G75*
G02*
X65000000Y-142900000I0J-250000D01*
G01*
X65000000Y-145900000D01*
G75*
G02*
X64750000Y-146150000I-250000J0D01*
G01*
G37*
%TD*%
%TO.C,C14*%
G36*
G01*
X121325000Y-171450000D02*
X122275000Y-171450000D01*
G75*
G02*
X122525000Y-171700000I0J-250000D01*
G01*
X122525000Y-172200000D01*
G75*
G02*
X122275000Y-172450000I-250000J0D01*
G01*
X121325000Y-172450000D01*
G75*
G02*
X121075000Y-172200000I0J250000D01*
G01*
X121075000Y-171700000D01*
G75*
G02*
X121325000Y-171450000I250000J0D01*
G01*
G37*
G36*
G01*
X121325000Y-169550000D02*
X122275000Y-169550000D01*
G75*
G02*
X122525000Y-169800000I0J-250000D01*
G01*
X122525000Y-170300000D01*
G75*
G02*
X122275000Y-170550000I-250000J0D01*
G01*
X121325000Y-170550000D01*
G75*
G02*
X121075000Y-170300000I0J250000D01*
G01*
X121075000Y-169800000D01*
G75*
G02*
X121325000Y-169550000I250000J0D01*
G01*
G37*
%TD*%
%TO.C,C13*%
G36*
G01*
X128225000Y-163850000D02*
X129175000Y-163850000D01*
G75*
G02*
X129425000Y-164100000I0J-250000D01*
G01*
X129425000Y-164600000D01*
G75*
G02*
X129175000Y-164850000I-250000J0D01*
G01*
X128225000Y-164850000D01*
G75*
G02*
X127975000Y-164600000I0J250000D01*
G01*
X127975000Y-164100000D01*
G75*
G02*
X128225000Y-163850000I250000J0D01*
G01*
G37*
G36*
G01*
X128225000Y-161950000D02*
X129175000Y-161950000D01*
G75*
G02*
X129425000Y-162200000I0J-250000D01*
G01*
X129425000Y-162700000D01*
G75*
G02*
X129175000Y-162950000I-250000J0D01*
G01*
X128225000Y-162950000D01*
G75*
G02*
X127975000Y-162700000I0J250000D01*
G01*
X127975000Y-162200000D01*
G75*
G02*
X128225000Y-161950000I250000J0D01*
G01*
G37*
%TD*%
%TO.C,C11*%
G36*
G01*
X110125000Y-159850000D02*
X111075000Y-159850000D01*
G75*
G02*
X111325000Y-160100000I0J-250000D01*
G01*
X111325000Y-160600000D01*
G75*
G02*
X111075000Y-160850000I-250000J0D01*
G01*
X110125000Y-160850000D01*
G75*
G02*
X109875000Y-160600000I0J250000D01*
G01*
X109875000Y-160100000D01*
G75*
G02*
X110125000Y-159850000I250000J0D01*
G01*
G37*
G36*
G01*
X110125000Y-157950000D02*
X111075000Y-157950000D01*
G75*
G02*
X111325000Y-158200000I0J-250000D01*
G01*
X111325000Y-158700000D01*
G75*
G02*
X111075000Y-158950000I-250000J0D01*
G01*
X110125000Y-158950000D01*
G75*
G02*
X109875000Y-158700000I0J250000D01*
G01*
X109875000Y-158200000D01*
G75*
G02*
X110125000Y-157950000I250000J0D01*
G01*
G37*
%TD*%
%TO.C,C10*%
G36*
G01*
X109925000Y-170450000D02*
X110875000Y-170450000D01*
G75*
G02*
X111125000Y-170700000I0J-250000D01*
G01*
X111125000Y-171200000D01*
G75*
G02*
X110875000Y-171450000I-250000J0D01*
G01*
X109925000Y-171450000D01*
G75*
G02*
X109675000Y-171200000I0J250000D01*
G01*
X109675000Y-170700000D01*
G75*
G02*
X109925000Y-170450000I250000J0D01*
G01*
G37*
G36*
G01*
X109925000Y-168550000D02*
X110875000Y-168550000D01*
G75*
G02*
X111125000Y-168800000I0J-250000D01*
G01*
X111125000Y-169300000D01*
G75*
G02*
X110875000Y-169550000I-250000J0D01*
G01*
X109925000Y-169550000D01*
G75*
G02*
X109675000Y-169300000I0J250000D01*
G01*
X109675000Y-168800000D01*
G75*
G02*
X109925000Y-168550000I250000J0D01*
G01*
G37*
%TD*%
%TO.C,C9*%
G36*
G01*
X103925000Y-138050000D02*
X104875000Y-138050000D01*
G75*
G02*
X105125000Y-138300000I0J-250000D01*
G01*
X105125000Y-138800000D01*
G75*
G02*
X104875000Y-139050000I-250000J0D01*
G01*
X103925000Y-139050000D01*
G75*
G02*
X103675000Y-138800000I0J250000D01*
G01*
X103675000Y-138300000D01*
G75*
G02*
X103925000Y-138050000I250000J0D01*
G01*
G37*
G36*
G01*
X103925000Y-136150000D02*
X104875000Y-136150000D01*
G75*
G02*
X105125000Y-136400000I0J-250000D01*
G01*
X105125000Y-136900000D01*
G75*
G02*
X104875000Y-137150000I-250000J0D01*
G01*
X103925000Y-137150000D01*
G75*
G02*
X103675000Y-136900000I0J250000D01*
G01*
X103675000Y-136400000D01*
G75*
G02*
X103925000Y-136150000I250000J0D01*
G01*
G37*
%TD*%
%TO.C,C8*%
G36*
G01*
X106425000Y-137950000D02*
X107375000Y-137950000D01*
G75*
G02*
X107625000Y-138200000I0J-250000D01*
G01*
X107625000Y-138700000D01*
G75*
G02*
X107375000Y-138950000I-250000J0D01*
G01*
X106425000Y-138950000D01*
G75*
G02*
X106175000Y-138700000I0J250000D01*
G01*
X106175000Y-138200000D01*
G75*
G02*
X106425000Y-137950000I250000J0D01*
G01*
G37*
G36*
G01*
X106425000Y-136050000D02*
X107375000Y-136050000D01*
G75*
G02*
X107625000Y-136300000I0J-250000D01*
G01*
X107625000Y-136800000D01*
G75*
G02*
X107375000Y-137050000I-250000J0D01*
G01*
X106425000Y-137050000D01*
G75*
G02*
X106175000Y-136800000I0J250000D01*
G01*
X106175000Y-136300000D01*
G75*
G02*
X106425000Y-136050000I250000J0D01*
G01*
G37*
%TD*%
%TO.C,C7*%
G36*
G01*
X74350000Y-191075000D02*
X74350000Y-190125000D01*
G75*
G02*
X74600000Y-189875000I250000J0D01*
G01*
X75100000Y-189875000D01*
G75*
G02*
X75350000Y-190125000I0J-250000D01*
G01*
X75350000Y-191075000D01*
G75*
G02*
X75100000Y-191325000I-250000J0D01*
G01*
X74600000Y-191325000D01*
G75*
G02*
X74350000Y-191075000I0J250000D01*
G01*
G37*
G36*
G01*
X72450000Y-191075000D02*
X72450000Y-190125000D01*
G75*
G02*
X72700000Y-189875000I250000J0D01*
G01*
X73200000Y-189875000D01*
G75*
G02*
X73450000Y-190125000I0J-250000D01*
G01*
X73450000Y-191075000D01*
G75*
G02*
X73200000Y-191325000I-250000J0D01*
G01*
X72700000Y-191325000D01*
G75*
G02*
X72450000Y-191075000I0J250000D01*
G01*
G37*
%TD*%
%TO.C,C6*%
G36*
G01*
X109125000Y-138050000D02*
X110075000Y-138050000D01*
G75*
G02*
X110325000Y-138300000I0J-250000D01*
G01*
X110325000Y-138800000D01*
G75*
G02*
X110075000Y-139050000I-250000J0D01*
G01*
X109125000Y-139050000D01*
G75*
G02*
X108875000Y-138800000I0J250000D01*
G01*
X108875000Y-138300000D01*
G75*
G02*
X109125000Y-138050000I250000J0D01*
G01*
G37*
G36*
G01*
X109125000Y-136150000D02*
X110075000Y-136150000D01*
G75*
G02*
X110325000Y-136400000I0J-250000D01*
G01*
X110325000Y-136900000D01*
G75*
G02*
X110075000Y-137150000I-250000J0D01*
G01*
X109125000Y-137150000D01*
G75*
G02*
X108875000Y-136900000I0J250000D01*
G01*
X108875000Y-136400000D01*
G75*
G02*
X109125000Y-136150000I250000J0D01*
G01*
G37*
%TD*%
%TO.C,C5*%
G36*
G01*
X57575000Y-147350000D02*
X56625000Y-147350000D01*
G75*
G02*
X56375000Y-147100000I0J250000D01*
G01*
X56375000Y-146600000D01*
G75*
G02*
X56625000Y-146350000I250000J0D01*
G01*
X57575000Y-146350000D01*
G75*
G02*
X57825000Y-146600000I0J-250000D01*
G01*
X57825000Y-147100000D01*
G75*
G02*
X57575000Y-147350000I-250000J0D01*
G01*
G37*
G36*
G01*
X57575000Y-149250000D02*
X56625000Y-149250000D01*
G75*
G02*
X56375000Y-149000000I0J250000D01*
G01*
X56375000Y-148500000D01*
G75*
G02*
X56625000Y-148250000I250000J0D01*
G01*
X57575000Y-148250000D01*
G75*
G02*
X57825000Y-148500000I0J-250000D01*
G01*
X57825000Y-149000000D01*
G75*
G02*
X57575000Y-149250000I-250000J0D01*
G01*
G37*
%TD*%
%TO.C,C4*%
G36*
G01*
X119325000Y-138050000D02*
X120275000Y-138050000D01*
G75*
G02*
X120525000Y-138300000I0J-250000D01*
G01*
X120525000Y-138800000D01*
G75*
G02*
X120275000Y-139050000I-250000J0D01*
G01*
X119325000Y-139050000D01*
G75*
G02*
X119075000Y-138800000I0J250000D01*
G01*
X119075000Y-138300000D01*
G75*
G02*
X119325000Y-138050000I250000J0D01*
G01*
G37*
G36*
G01*
X119325000Y-136150000D02*
X120275000Y-136150000D01*
G75*
G02*
X120525000Y-136400000I0J-250000D01*
G01*
X120525000Y-136900000D01*
G75*
G02*
X120275000Y-137150000I-250000J0D01*
G01*
X119325000Y-137150000D01*
G75*
G02*
X119075000Y-136900000I0J250000D01*
G01*
X119075000Y-136400000D01*
G75*
G02*
X119325000Y-136150000I250000J0D01*
G01*
G37*
%TD*%
%TO.C,C3*%
G36*
G01*
X116725000Y-138200000D02*
X117675000Y-138200000D01*
G75*
G02*
X117925000Y-138450000I0J-250000D01*
G01*
X117925000Y-138950000D01*
G75*
G02*
X117675000Y-139200000I-250000J0D01*
G01*
X116725000Y-139200000D01*
G75*
G02*
X116475000Y-138950000I0J250000D01*
G01*
X116475000Y-138450000D01*
G75*
G02*
X116725000Y-138200000I250000J0D01*
G01*
G37*
G36*
G01*
X116725000Y-136300000D02*
X117675000Y-136300000D01*
G75*
G02*
X117925000Y-136550000I0J-250000D01*
G01*
X117925000Y-137050000D01*
G75*
G02*
X117675000Y-137300000I-250000J0D01*
G01*
X116725000Y-137300000D01*
G75*
G02*
X116475000Y-137050000I0J250000D01*
G01*
X116475000Y-136550000D01*
G75*
G02*
X116725000Y-136300000I250000J0D01*
G01*
G37*
%TD*%
%TO.C,C2*%
G36*
G01*
X114125000Y-138050000D02*
X115075000Y-138050000D01*
G75*
G02*
X115325000Y-138300000I0J-250000D01*
G01*
X115325000Y-138800000D01*
G75*
G02*
X115075000Y-139050000I-250000J0D01*
G01*
X114125000Y-139050000D01*
G75*
G02*
X113875000Y-138800000I0J250000D01*
G01*
X113875000Y-138300000D01*
G75*
G02*
X114125000Y-138050000I250000J0D01*
G01*
G37*
G36*
G01*
X114125000Y-136150000D02*
X115075000Y-136150000D01*
G75*
G02*
X115325000Y-136400000I0J-250000D01*
G01*
X115325000Y-136900000D01*
G75*
G02*
X115075000Y-137150000I-250000J0D01*
G01*
X114125000Y-137150000D01*
G75*
G02*
X113875000Y-136900000I0J250000D01*
G01*
X113875000Y-136400000D01*
G75*
G02*
X114125000Y-136150000I250000J0D01*
G01*
G37*
%TD*%
%TO.C,C1*%
G36*
G01*
X111825000Y-138050000D02*
X112775000Y-138050000D01*
G75*
G02*
X113025000Y-138300000I0J-250000D01*
G01*
X113025000Y-138800000D01*
G75*
G02*
X112775000Y-139050000I-250000J0D01*
G01*
X111825000Y-139050000D01*
G75*
G02*
X111575000Y-138800000I0J250000D01*
G01*
X111575000Y-138300000D01*
G75*
G02*
X111825000Y-138050000I250000J0D01*
G01*
G37*
G36*
G01*
X111825000Y-136150000D02*
X112775000Y-136150000D01*
G75*
G02*
X113025000Y-136400000I0J-250000D01*
G01*
X113025000Y-136900000D01*
G75*
G02*
X112775000Y-137150000I-250000J0D01*
G01*
X111825000Y-137150000D01*
G75*
G02*
X111575000Y-136900000I0J250000D01*
G01*
X111575000Y-136400000D01*
G75*
G02*
X111825000Y-136150000I250000J0D01*
G01*
G37*
%TD*%
D32*
%TO.C,H4*%
X148000000Y-221000000D03*
%TD*%
%TO.C,H3*%
X59000000Y-221000000D03*
%TD*%
%TO.C,H2*%
X148000000Y-132000000D03*
%TD*%
%TO.C,H1*%
X59000000Y-132000000D03*
%TD*%
D33*
%TO.C,J2*%
X127260000Y-222000000D03*
X124720000Y-222000000D03*
X122180000Y-222000000D03*
X119640000Y-222000000D03*
X117100000Y-222000000D03*
X114560000Y-222000000D03*
X112020000Y-222000000D03*
X109480000Y-222000000D03*
X106940000Y-222000000D03*
X104400000Y-222000000D03*
X101860000Y-222000000D03*
X99320000Y-222000000D03*
X96780000Y-222000000D03*
X94240000Y-222000000D03*
X91700000Y-222000000D03*
X89160000Y-222000000D03*
X86620000Y-222000000D03*
X84080000Y-222000000D03*
X81540000Y-222000000D03*
D34*
X79000000Y-222000000D03*
%TD*%
D33*
%TO.C,J1*%
X127320000Y-131000000D03*
X124780000Y-131000000D03*
X122240000Y-131000000D03*
X119700000Y-131000000D03*
X117160000Y-131000000D03*
X114620000Y-131000000D03*
X112080000Y-131000000D03*
X109540000Y-131000000D03*
X107000000Y-131000000D03*
X104460000Y-131000000D03*
X101920000Y-131000000D03*
X99380000Y-131000000D03*
X96840000Y-131000000D03*
X94300000Y-131000000D03*
X91760000Y-131000000D03*
X89220000Y-131000000D03*
X86680000Y-131000000D03*
X84140000Y-131000000D03*
X81600000Y-131000000D03*
D34*
X79060000Y-131000000D03*
%TD*%
M02*
