M48
; DRILL file {KiCad (5.1.12)-1} date 04/15/24 13:07:52
; FORMAT={-:-/ absolute / inch / decimal}
; #@! TF.CreationDate,2024-04-15T13:07:52-04:00
; #@! TF.GenerationSoftware,Kicad,Pcbnew,(5.1.12)-1
; #@! TF.FileFunction,Plated,1,2,PTH
FMAT,2
INCH
T1C0.0079
T2C0.0197
T3C0.0300
T4C0.0394
T5C0.1260
%
G90
G05
T1
X5.2244Y-7.2795
X5.2677Y-7.2362
X5.2677Y-7.2795
X5.2677Y-7.3228
X5.311Y-7.2795
T2
X2.2402Y-5.3425
X2.252Y-8.5236
X2.2913Y-7.6299
X2.2992Y-7.8346
X2.3031Y-8.2323
X2.311Y-8.1024
X2.315Y-7.378
X2.315Y-7.9409
X2.3189Y-5.7913
X2.3189Y-8.5236
X2.3268Y-7.2008
X2.3386Y-8.3189
X2.3465Y-5.6024
X2.3583Y-5.7047
X2.3622Y-5.4291
X2.3622Y-5.9173
X2.3701Y-6.0591
X2.3937Y-8.0354
X2.3937Y-8.1417
X2.4016Y-7.2756
X2.4055Y-5.3386
X2.4094Y-7.8819
X2.4213Y-5.7874
X2.4331Y-6.0157
X2.4331Y-8.2913
X2.4449Y-5.622
X2.4488Y-5.4803
X2.4606Y-6.0669
X2.4803Y-5.1024
X2.4803Y-5.2205
X2.4803Y-8.4803
X2.4961Y-8.6929
X2.5079Y-8.7677
X2.5118Y-7.1969
X2.5118Y-7.5591
X2.5236Y-8.1693
X2.5276Y-7.6929
X2.5315Y-8.0315
X2.5787Y-8.4173
X2.5827Y-8.2402
X2.5866Y-8.563
X2.5945Y-5.2047
X2.5945Y-7.8268
X2.6102Y-7.4094
X2.622Y-7.2323
X2.6339Y-5.5866
X2.6496Y-5.378
X2.6496Y-8.1575
X2.6535Y-8.3307
X2.6614Y-8.0472
X2.7008Y-8.7323
X2.7205Y-8.2205
X2.7205Y-8.5039
X2.7441Y-5.1929
X2.7559Y-7.622
X2.7598Y-7.8465
X2.7638Y-5.437
X2.7638Y-5.7441
X2.7638Y-5.8071
X2.7677Y-5.9094
X2.7756Y-8.3386
X2.7795Y-7.7165
X2.7874Y-7.9803
X2.7992Y-6.0079
X2.811Y-8.1339
X2.815Y-7.3819
X2.8228Y-8.6732
X2.8386Y-5.7756
X2.8543Y-6.0433
X2.8622Y-8.2717
X2.8661Y-8.5512
X2.8898Y-5.9016
X2.8898Y-7.1811
X2.8937Y-8.0433
X2.9134Y-7.8465
X2.9213Y-5.7362
X2.9252Y-8.1417
X2.9331Y-7.5787
X2.937Y-5.6024
X2.9449Y-5.2126
X2.9449Y-8.4173
X2.9528Y-5.2953
X2.9567Y-6.4488
X2.9567Y-7.3661
X2.9567Y-8.7323
X2.9764Y-5.8228
X2.9803Y-6.0472
X2.9803Y-7.8622
X2.9843Y-5.1102
X3.0079Y-7.5787
X3.0157Y-5.5039
X3.0157Y-8.6024
X3.0197Y-8.0315
X3.0236Y-5.7362
X3.0276Y-5.6181
X3.0315Y-6.5157
X3.0315Y-7.4409
X3.0315Y-8.5118
X3.0591Y-8.3504
X3.063Y-6.0472
X3.0787Y-5.9134
X3.0906Y-8.1969
X3.0984Y-6.4488
X3.1063Y-5.6693
X3.1102Y-7.2323
X3.1339Y-7.374
X3.1378Y-5.878
X3.1457Y-7.748
X3.1535Y-6.063
X3.1575Y-8.5039
X3.1614Y-6.5236
X3.1811Y-8.374
X3.1929Y-6.4449
X3.1969Y-7.6575
X3.2087Y-8.5945
X3.2126Y-7.8386
X3.2205Y-5.7638
X3.2205Y-8.1181
X3.2244Y-7.2165
X3.2244Y-7.4803
X3.2362Y-7.5236
X3.252Y-6.6181
X3.252Y-8.2559
X3.2598Y-5.9449
X3.2756Y-7.3504
X3.2795Y-6.5236
X3.2913Y-7.7559
X3.2992Y-6.4488
X3.2992Y-8.3898
X3.3031Y-5.8346
X3.3346Y-7.1772
X3.3346Y-8.5512
X3.3425Y-6.689
X3.3425Y-7.6102
X3.3543Y-6.5512
X3.3622Y-5.3701
X3.3701Y-6.0276
X3.378Y-7.9409
X3.3819Y-6.4724
X3.3976Y-8.1339
X3.4213Y-5.8465
X3.4291Y-8.2598
X3.4449Y-5.9606
X3.4449Y-6.4449
X3.4488Y-6.6654
X3.4567Y-8.4961
X3.4606Y-7.5315
X3.4646Y-7.1575
X3.4724Y-6.7717
X3.4724Y-7.8031
X3.4803Y-5.3701
X3.4803Y-6.5512
X3.4921Y-7.3937
X3.5079Y-8.5906
X3.5197Y-8.1181
X3.5197Y-8.3937
X3.5354Y-5.811
X3.5433Y-6.4685
X3.5472Y-7.6772
X3.5512Y-5.9173
X3.563Y-7.9528
X3.5709Y-6.7323
X3.5787Y-6.5433
X3.5787Y-6.622
X3.5827Y-7.8465
X3.5906Y-6.063
X3.5945Y-7.1535
X3.5984Y-7.3425
X3.6102Y-5.6614
X3.6102Y-8.5433
X3.6142Y-6.4291
X3.6378Y-8.2953
X3.6457Y-6.7677
X3.6457Y-8.0787
X3.6535Y-6.4567
X3.6654Y-5.7362
X3.6654Y-7.7165
X3.6732Y-6.5591
X3.6811Y-5.8228
X3.685Y-7.9449
X3.6929Y-6.4409
X3.6929Y-7.5276
X3.7047Y-6.6496
X3.7047Y-8.6142
X3.7087Y-8.4528
X3.7283Y-5.4528
X3.7283Y-5.9528
X3.7283Y-6.7677
X3.7362Y-7.8504
X3.7402Y-5.3504
X3.7402Y-7.1575
X3.7559Y-7.3701
X3.7677Y-5.0945
X3.7677Y-5.7362
X3.7756Y-7.5551
X3.7756Y-7.7205
X3.7795Y-8.2559
X3.7835Y-6.748
X3.7913Y-5.4291
X3.7913Y-8.1024
X3.7953Y-8.4331
X3.7953Y-8.626
X3.7992Y-6.0945
X3.7992Y-7.9409
X3.8465Y-5.3504
X3.8504Y-6.7835
X3.8543Y-5.6457
X3.8858Y-5.9213
X3.8898Y-5.5157
X3.8937Y-5.9921
X3.9016Y-7.752
X3.9055Y-8.1575
X3.9094Y-6.5906
X3.9094Y-8.5984
X3.9134Y-5.7717
X3.9134Y-8.3346
X3.9291Y-6.4488
X3.9291Y-7.8543
X3.9291Y-8.4961
X3.9488Y-6.8031
X3.9528Y-5.4331
X3.9606Y-5.0827
X3.9803Y-6.4528
X3.9882Y-6.5472
X3.9961Y-7.6772
X4.0118Y-5.9134
X4.0276Y-5.8228
X4.0276Y-6.6299
X4.0276Y-8.0866
X4.0276Y-8.2244
X4.0315Y-5.6535
X4.0315Y-7.8543
X4.0394Y-6.7362
X4.0394Y-7.9724
X4.0394Y-8.3898
X4.0394Y-8.5748
X4.0709Y-5.5197
X4.0906Y-6.0039
X4.1063Y-7.5591
X4.1457Y-7.7402
X4.1772Y-8.1614
X4.1772Y-8.4646
X4.185Y-8.6614
X4.1969Y-7.8543
X4.1969Y-7.9685
X4.1969Y-8.311
X4.2008Y-5.5157
X4.2008Y-5.8858
X4.2047Y-6.5709
X4.2087Y-5.7677
X4.2156Y-6.0266
X4.2441Y-6.1063
X4.248Y-5.5748
X4.248Y-6.2323
X4.248Y-6.3071
X4.2559Y-6.6732
X4.2638Y-6.4528
X4.2638Y-6.5669
X4.2756Y-7.7402
X4.2874Y-7.8504
X4.2953Y-8.5551
X4.311Y-8.0827
X4.311Y-8.2205
X4.315Y-8.3819
X4.3346Y-5.5236
X4.3386Y-7.5866
X4.3425Y-7.689
X4.3622Y-7.7953
X4.3622Y-8.6575
X4.3661Y-5.7598
X4.378Y-6.3858
X4.378Y-6.7953
X4.3937Y-7.0748
X4.4094Y-7.9685
X4.4094Y-8.3583
X4.4134Y-6.4173
X4.4134Y-7.189
X4.4134Y-7.8622
X4.4134Y-8.0827
X4.4134Y-8.4961
X4.4173Y-8.2205
X4.4213Y-5.5827
X4.4213Y-6.8976
X4.4252Y-6.5197
X4.4331Y-7.3268
X4.437Y-6.9921
X4.4488Y-7.7205
X4.4724Y-8.6654
X4.4764Y-8.5906
X4.4921Y-6.811
X4.5118Y-7.0748
X4.5118Y-7.7717
X4.5118Y-8.4409
X4.5157Y-5.5079
X4.5276Y-6.1929
X4.5315Y-7.5433
X4.5354Y-8.5197
X4.5354Y-8.6614
X4.5394Y-7.3661
X4.5472Y-8.3701
X4.5551Y-6.9213
X4.5551Y-8.2165
X4.563Y-6.5906
X4.563Y-7.2008
X4.5689Y-7.876
X4.5748Y-5.311
X4.5748Y-8.0866
X4.5906Y-6.7756
X4.5906Y-7.5866
X4.6024Y-7.4528
X4.6063Y-7.685
X4.6102Y-6.4449
X4.6142Y-6.189
X4.6142Y-6.3661
X4.622Y-5.5827
X4.622Y-7.9685
X4.6339Y-7.0787
X4.6535Y-7.5472
X4.6575Y-5.2717
X4.6575Y-7.2598
X4.6575Y-8.6575
X4.6654Y-6.0945
X4.6683Y-6.2982
X4.6688Y-6.0231
X4.6732Y-7.7992
X4.6772Y-6.9213
X4.7047Y-7.5906
X4.7087Y-7.3858
X4.7087Y-8.4606
X4.7126Y-5.5236
X4.7126Y-7.063
X4.7126Y-7.689
X4.7126Y-8.1142
X4.7244Y-6.2717
X4.7283Y-6.3701
X4.7283Y-6.7638
X4.7323Y-5.5945
X4.7323Y-8.3307
X4.7441Y-6.0906
X4.748Y-8.5591
X4.7559Y-6.1693
X4.7559Y-7.1929
X4.7598Y-7.8465
X4.7638Y-7.7756
X4.7717Y-6.8465
X4.7835Y-5.248
X4.7835Y-6.5039
X4.7835Y-8.2323
X4.7913Y-7.5
X4.7953Y-5.5433
X4.7953Y-6.6614
X4.7953Y-7.6299
X4.8031Y-7.9685
X4.812Y-5.6289
X4.815Y-5.3386
X4.8228Y-7.3031
X4.8268Y-7.7087
X4.8307Y-6.9646
X4.8346Y-7.063
X4.8425Y-8.5039
X4.8543Y-7.5472
X4.8543Y-8.1181
X4.8583Y-8.6142
X4.8661Y-8.3898
X4.878Y-6.2047
X4.8976Y-5.7047
X4.8976Y-5.7835
X4.8976Y-5.8976
X4.8976Y-5.9843
X4.9055Y-6.937
X4.9055Y-7.1772
X4.9134Y-5.4252
X4.9173Y-6.1142
X4.9213Y-5.3307
X4.9252Y-8.2598
X4.9291Y-5.2441
X4.9331Y-5.8386
X4.9331Y-8.4843
X4.9646Y-7.1732
X4.9665Y-7.3957
X4.9724Y-7.6772
X4.9764Y-5.5236
X4.9764Y-7.0394
X4.9764Y-8.3937
X4.9803Y-6.8346
X4.9803Y-6.9213
X4.9803Y-7.8583
X5.0Y-7.7874
X5.0079Y-7.9724
X5.0157Y-6.2087
X5.0157Y-8.5394
X5.0236Y-5.311
X5.0276Y-6.1299
X5.0315Y-6.0551
X5.0315Y-7.2795
X5.0354Y-5.4685
X5.0354Y-5.6457
X5.0354Y-5.7913
X5.0354Y-5.9213
X5.0394Y-7.6969
X5.0669Y-6.8268
X5.0669Y-8.1614
X5.0669Y-8.3583
X5.0748Y-6.5276
X5.0827Y-5.2402
X5.0866Y-7.7835
X5.1024Y-7.8543
X5.126Y-5.3583
X5.1299Y-6.8228
X5.1417Y-7.7992
X5.1535Y-7.7126
X5.1654Y-7.0787
X5.1693Y-8.5906
X5.1732Y-6.0394
X5.1811Y-5.5591
X5.185Y-5.4921
X5.185Y-5.6654
X5.185Y-5.8189
X5.1969Y-5.9685
X5.1969Y-8.4528
X5.1973Y-6.9729
X5.1988Y-7.1437
X5.2047Y-5.3228
X5.2047Y-6.3701
X5.2047Y-8.1811
X5.2087Y-5.0906
X5.2087Y-8.7835
X5.2126Y-6.1142
X5.2244Y-7.9646
X5.2382Y-7.25
X5.2402Y-8.3031
X5.2441Y-5.7244
X5.252Y-5.2362
X5.252Y-6.311
X5.2559Y-7.0787
X5.2559Y-8.6102
X5.2598Y-5.437
X5.2598Y-6.8189
X5.2677Y-5.874
X5.2677Y-7.2795
X5.2795Y-6.8976
X5.2874Y-6.1496
X5.2992Y-7.311
X5.3031Y-5.9567
X5.3071Y-6.5709
X5.311Y-6.0394
X5.315Y-5.311
X5.3189Y-5.7835
X5.3268Y-6.3386
X5.3268Y-8.0945
X5.3346Y-6.7717
X5.3346Y-8.5236
X5.3465Y-7.5512
X5.3465Y-7.6693
X5.3465Y-8.7795
X5.3701Y-8.1654
X5.374Y-6.5079
X5.374Y-6.7283
X5.374Y-7.126
X5.378Y-6.0866
X5.378Y-6.3071
X5.3858Y-6.5906
X5.3898Y-7.3976
X5.3898Y-8.3228
X5.3976Y-7.7323
X5.4055Y-7.1732
X5.4134Y-5.9291
X5.4134Y-7.2992
X5.4173Y-5.7795
X5.4173Y-7.9685
X5.4213Y-5.3071
X5.4213Y-7.0787
X5.4213Y-7.2283
X5.4291Y-7.3543
X5.4291Y-7.5827
X5.4331Y-6.0039
X5.4331Y-7.4331
X5.4331Y-7.4803
X5.4449Y-7.815
X5.4528Y-5.4528
X5.4528Y-7.6654
X5.4646Y-8.5
X5.4764Y-6.8661
X5.4803Y-8.6969
X5.4843Y-6.7441
X5.4882Y-6.374
X5.4882Y-6.5906
X5.4882Y-6.8031
X5.4882Y-8.126
X5.5039Y-7.9173
X5.5236Y-6.3071
X5.5315Y-7.0787
X5.5315Y-7.1614
X5.5354Y-5.2874
X5.5354Y-8.3661
X5.5433Y-8.0512
X5.5472Y-8.2126
X5.5512Y-6.8268
X5.5551Y-6.6969
X5.563Y-6.9016
X5.5669Y-5.4488
X5.5748Y-6.0
X5.5906Y-5.9134
X5.5984Y-5.5
X5.6024Y-5.6732
X5.6024Y-5.7953
X5.6024Y-6.9606
X5.6024Y-7.4567
X5.6024Y-7.9685
X5.6043Y-7.6319
X5.6063Y-6.1063
X5.6102Y-7.7638
X5.6181Y-8.5669
X5.622Y-6.8189
X5.6339Y-5.6181
X5.6339Y-6.0039
X5.6339Y-8.7598
X5.6378Y-6.6929
X5.6378Y-8.3701
X5.6457Y-8.1614
X5.6614Y-5.3071
X5.6693Y-5.5472
X5.6732Y-5.9331
X5.6811Y-5.0866
X5.6811Y-5.2441
X5.6811Y-5.811
X5.685Y-6.378
X5.689Y-6.4921
X5.6929Y-6.437
X5.6929Y-6.6575
X5.7047Y-7.4646
X5.7087Y-6.1417
X5.7087Y-6.9843
X5.7087Y-7.1732
X5.7126Y-5.6772
X5.7126Y-7.2992
X5.7323Y-5.6181
X5.7323Y-7.5315
X5.7441Y-7.7598
X5.748Y-5.3622
X5.748Y-5.437
X5.748Y-5.5236
X5.748Y-6.0591
X5.7559Y-8.4882
X5.7598Y-6.374
X5.7717Y-8.1535
X5.7717Y-8.2638
X5.7756Y-7.8976
X5.7835Y-7.6654
X5.7874Y-5.7992
X5.7992Y-5.6496
X5.7992Y-7.5118
X5.815Y-5.9134
X5.815Y-7.5945
X5.8228Y-5.4921
X5.8228Y-6.0197
X5.8346Y-6.378
X5.8346Y-7.815
X5.8386Y-7.9567
X5.8425Y-6.1535
X5.8425Y-7.2953
X5.8465Y-7.1693
X5.8504Y-6.5118
X5.8504Y-7.4567
X5.8543Y-6.8583
X5.8819Y-8.374
X5.8937Y-8.1535
X5.8937Y-8.2638
X5.9055Y-5.8386
X5.9055Y-6.9331
X5.9094Y-5.5787
X5.9094Y-6.0709
X5.9134Y-7.1654
X5.9134Y-7.8819
X5.9213Y-7.4016
X5.9213Y-7.6378
X5.9449Y-5.3386
T3
X2.248Y-6.2591
X2.248Y-6.9591
X2.348Y-6.2591
X2.348Y-6.9591
X2.448Y-6.2591
X2.448Y-6.9591
X2.548Y-6.2591
X2.548Y-6.9591
X2.648Y-6.2591
X2.648Y-6.9591
X2.748Y-6.2591
X2.748Y-6.9591
X2.848Y-6.2591
X2.848Y-6.9591
X2.948Y-6.2591
X2.948Y-6.9591
X3.048Y-6.2591
X3.048Y-6.9591
X3.148Y-6.2591
X3.148Y-6.9591
X3.248Y-6.2591
X3.248Y-6.9591
X3.348Y-6.2591
X3.348Y-6.9591
X3.448Y-6.2591
X3.448Y-6.9591
X3.548Y-6.2591
X3.548Y-6.9591
X3.648Y-6.2591
X3.648Y-6.9591
X3.748Y-6.2591
X3.748Y-6.9591
X3.848Y-6.2591
X3.848Y-6.9591
X3.948Y-6.2591
X3.948Y-6.9591
X4.048Y-6.2591
X4.048Y-6.9591
X4.148Y-6.2591
X4.148Y-6.9591
T4
X3.1102Y-8.7402
X3.1126Y-5.1575
X3.2102Y-8.7402
X3.2126Y-5.1575
X3.3102Y-8.7402
X3.3126Y-5.1575
X3.4102Y-8.7402
X3.4126Y-5.1575
X3.5102Y-8.7402
X3.5126Y-5.1575
X3.6102Y-8.7402
X3.6126Y-5.1575
X3.7102Y-8.7402
X3.7126Y-5.1575
X3.8102Y-8.7402
X3.8126Y-5.1575
X3.9102Y-8.7402
X3.9126Y-5.1575
X4.0102Y-8.7402
X4.0126Y-5.1575
X4.1102Y-8.7402
X4.1126Y-5.1575
X4.2102Y-8.7402
X4.2126Y-5.1575
X4.3102Y-8.7402
X4.3126Y-5.1575
X4.4102Y-8.7402
X4.4126Y-5.1575
X4.5102Y-8.7402
X4.5126Y-5.1575
X4.6102Y-8.7402
X4.6126Y-5.1575
X4.7102Y-8.7402
X4.7126Y-5.1575
X4.8102Y-8.7402
X4.8126Y-5.1575
X4.9102Y-8.7402
X4.9126Y-5.1575
X5.0102Y-8.7402
X5.0126Y-5.1575
T5
X2.3228Y-5.1969
X2.3228Y-8.7008
X5.8268Y-5.1969
X5.8268Y-8.7008
T0
M30
